<svg width="500" height="500" viewBox="0 0 500 500" fill="none" xmlns="http://www.w3.org/2000/svg">
<path d="M55.4801 273.731C55.4801 273.731 57.8031 345.74 117.914 393.736C178.025 441.732 261.321 445.169 328.754 449.728C396.186 454.287 447.98 416.114 455.786 358.41C463.592 300.706 412.066 283.767 384.109 218.081C356.153 152.395 358.64 130.804 299.487 90.404C240.334 50.004 147.8 74.811 99.2841 144.022C50.7691 213.233 55.4801 273.731 55.4801 273.731Z" fill="#659961"/>
<path opacity="0.7" d="M55.4801 273.731C55.4801 273.731 57.8031 345.74 117.914 393.736C178.025 441.732 261.321 445.169 328.754 449.728C396.186 454.287 447.98 416.114 455.786 358.41C463.592 300.706 412.066 283.767 384.109 218.081C356.153 152.395 358.64 130.804 299.487 90.404C240.334 50.004 147.8 74.811 99.2841 144.022C50.7691 213.233 55.4801 273.731 55.4801 273.731Z" fill="white"/>
<path d="M83.6118 179.686V153.919C83.6118 135.679 98.7689 120.84 117.399 120.84C136.029 120.84 151.186 135.679 151.186 153.919V179.686H164.656V153.919C164.656 128.408 143.457 107.653 117.399 107.653C91.3408 107.653 70.1418 128.408 70.1418 153.919V179.686H83.6118Z" stroke="#494949" stroke-width="1.1663" stroke-miterlimit="10" stroke-linecap="round" stroke-linejoin="round"/>
<path d="M168.319 179.872H65.137V265.226H168.319V179.872Z" stroke="#494949" stroke-width="1.1663" stroke-miterlimit="10" stroke-linecap="round" stroke-linejoin="round"/>
<path d="M127.458 215.317C127.458 209.243 122.429 204.32 116.225 204.32C110.021 204.32 104.992 209.244 104.992 215.317C104.992 219.501 107.378 223.138 110.891 224.997L109.004 244.383H123.447L121.56 224.997C125.071 223.137 127.458 219.501 127.458 215.317Z" stroke="#494949" stroke-width="1.1663" stroke-miterlimit="10" stroke-linecap="round" stroke-linejoin="round"/>
<path d="M232.637 267.988L206.952 266.298V265.883L203.794 266.09L200.636 265.883V266.298L174.951 267.988L156.002 423.785H174.951L203.162 299.568H204.425L232.637 423.785H251.586L232.637 267.988Z" fill="#494949" stroke="#494949" stroke-width="1.1663" stroke-miterlimit="10" stroke-linecap="round" stroke-linejoin="round"/>
<path d="M156.002 423.785L151.37 430.943L137.054 437.259C137.054 437.259 134.528 438.522 134.528 441.47C134.528 444.418 134.528 446.944 134.528 446.944H175.372C175.372 446.944 175.793 442.312 175.372 438.102C174.951 433.891 174.951 423.786 174.951 423.786H156.002V423.785Z" fill="#4C4C4C" stroke="#494949" stroke-width="1.1663" stroke-miterlimit="10" stroke-linecap="round" stroke-linejoin="round"/>
<path d="M134.528 442.312C134.528 444.882 134.528 446.944 134.528 446.944H175.372C175.372 446.944 175.556 444.908 175.558 442.312H134.528Z" fill="#494949" stroke="#494949" stroke-width="1.1663" stroke-miterlimit="10" stroke-linecap="round" stroke-linejoin="round"/>
<path d="M251.508 423.785L256.14 430.943L270.456 437.259C270.456 437.259 272.982 438.522 272.982 441.47C272.982 444.418 272.982 446.944 272.982 446.944H232.138C232.138 446.944 231.717 442.312 232.138 438.102C232.559 433.891 232.559 423.786 232.559 423.786H251.508V423.785Z" fill="#4C4C4C" stroke="#494949" stroke-width="1.1663" stroke-miterlimit="10" stroke-linecap="round" stroke-linejoin="round"/>
<path d="M272.983 442.312C272.983 444.882 272.983 446.944 272.983 446.944H232.139C232.139 446.944 231.955 444.908 231.953 442.312H272.983Z" fill="#494949" stroke="#494949" stroke-width="1.1663" stroke-miterlimit="10" stroke-linecap="round" stroke-linejoin="round"/>
<path d="M164.072 195.509C164.072 195.509 134.107 237.67 134.107 240.758C134.107 243.846 138.879 267.707 146.458 269.952C154.037 272.198 158.248 268.268 159.652 260.408C161.056 252.548 156.283 241.319 156.283 241.319L170.319 228.687L164.072 195.509Z" fill="#659961" stroke="#494949" stroke-width="1.1663" stroke-miterlimit="10" stroke-linecap="round" stroke-linejoin="round"/>
<path d="M158.248 259.286C158.248 259.286 166.95 257.882 169.196 258.444C171.442 259.005 173.126 264.339 173.126 264.339C173.126 264.339 173.968 272.199 172.564 273.883C171.16 275.567 164.423 277.532 161.616 278.094C158.809 278.655 152.914 272.199 150.668 268.269C148.423 264.339 152.353 257.602 158.248 259.286Z" fill="white" stroke="#494949" stroke-width="1.1663" stroke-miterlimit="10" stroke-linecap="round" stroke-linejoin="round"/>
<path d="M170.381 193.597L164.072 195.509L174.014 261.854H233.093L242.08 195.892L234.049 192.833L204.414 186.332L170.381 193.597Z" fill="#659961" stroke="#494949" stroke-width="1.1663" stroke-miterlimit="10" stroke-linecap="round" stroke-linejoin="round"/>
<path d="M236.344 215.776L235.005 225.336L224.681 227.822L214.165 223.615L214.93 215.011L236.344 215.776Z" fill="#494949" stroke="#494949" stroke-width="1.1663" stroke-miterlimit="10" stroke-linecap="round" stroke-linejoin="round"/>
<path d="M223.534 223.52C223.534 222.517 224.347 221.704 225.35 221.704C226.353 221.704 227.166 222.517 227.166 223.52C227.166 224.523 226.353 225.336 225.35 225.336C224.347 225.336 223.534 224.523 223.534 223.52Z" fill="#4C4C4C" stroke="#494949" stroke-width="1.1663" stroke-miterlimit="10" stroke-linecap="round" stroke-linejoin="round"/>
<path d="M198.104 198.568L203.649 205.069L196.575 250.192L204.032 262.046L212.827 249.618L205.37 205.26L211.679 199.142L204.988 190.538L198.104 198.568Z" fill="#494949" stroke="#494949" stroke-width="1.1663" stroke-miterlimit="10" stroke-linecap="round" stroke-linejoin="round"/>
<path d="M192.751 187.288L167.322 193.597L168.087 196.656L192.942 189.773L192.751 187.288Z" fill="#494949" stroke="#494949" stroke-width="1.1663" stroke-miterlimit="10" stroke-linecap="round" stroke-linejoin="round"/>
<path d="M213.591 186.523L239.021 192.833L238.256 195.892L213.4 189.009L213.591 186.523Z" fill="#494949" stroke="#494949" stroke-width="1.1663" stroke-miterlimit="10" stroke-linecap="round" stroke-linejoin="round"/>
<path d="M239.021 192.833C239.021 192.833 248.639 195.003 254.533 198.371C260.428 201.74 261.832 209.319 258.463 217.74C255.094 226.162 244.708 225.039 239.936 222.793C235.164 220.547 233.76 212.126 234.602 208.477" fill="#659961"/>
<path d="M239.021 192.833C239.021 192.833 248.639 195.003 254.533 198.371C260.428 201.74 261.832 209.319 258.463 217.74C255.094 226.162 244.708 225.039 239.936 222.793C235.164 220.547 233.76 212.126 234.602 208.477" stroke="#494949" stroke-width="1.1663" stroke-miterlimit="10" stroke-linecap="round" stroke-linejoin="round"/>
<path d="M193.898 184.038L191.03 185.949L191.795 205.26L204.223 196.465L217.224 205.452L218.371 186.332L214.93 183.464L193.898 184.038Z" fill="#659961" stroke="#494949" stroke-width="1.1663" stroke-miterlimit="10" stroke-linecap="round" stroke-linejoin="round"/>
<path d="M219.015 161.07C219.015 161.07 226.076 159.352 227.412 152.291C228.748 145.23 215.961 136.642 207.183 135.115C198.404 133.588 185.427 142.749 183.328 149.046C181.229 155.344 189.435 161.642 198.214 162.978C206.992 164.314 219.015 161.07 219.015 161.07Z" fill="#494949" stroke="#494949" stroke-width="1.1663" stroke-miterlimit="10" stroke-linecap="round" stroke-linejoin="round"/>
<path d="M192.679 162.215C192.679 162.215 188.862 156.299 187.908 161.452C186.954 166.605 190.961 168.895 192.679 168.704C194.397 168.513 192.679 162.215 192.679 162.215Z" fill="white" stroke="#494949" stroke-width="1.1663" stroke-miterlimit="10" stroke-linecap="round" stroke-linejoin="round"/>
<path d="M217.489 162.215C217.489 162.215 221.306 156.299 222.26 161.452C223.214 166.605 219.207 168.895 217.489 168.704C215.771 168.513 217.489 162.215 217.489 162.215Z" fill="white" stroke="#494949" stroke-width="1.1663" stroke-miterlimit="10" stroke-linecap="round" stroke-linejoin="round"/>
<path d="M193.516 173.904V186.523L204.223 196.465L216.268 186.141V174.286L193.516 173.904Z" fill="white" stroke="#494949" stroke-width="1.1663" stroke-miterlimit="10" stroke-linecap="round" stroke-linejoin="round"/>
<path d="M191.916 158.398C191.916 158.398 191.343 170.23 192.298 174.047C193.252 177.864 199.55 185.879 204.512 187.597C209.474 189.315 216.344 179.009 217.871 175.574C219.398 172.139 218.825 157.635 218.825 157.635C218.825 157.635 216.726 152.673 212.527 151.146C208.328 149.62 195.351 146.948 191.916 158.398Z" fill="white" stroke="#494949" stroke-width="1.1663" stroke-miterlimit="10" stroke-linecap="round" stroke-linejoin="round"/>
<path d="M199.855 164.68C199.855 165.582 199.442 166.312 198.932 166.312C198.422 166.312 198.009 165.581 198.009 164.68C198.009 163.779 198.422 163.048 198.932 163.048C199.442 163.048 199.855 163.778 199.855 164.68Z" fill="#494949"/>
<path d="M211.565 164.68C211.565 165.582 211.152 166.312 210.642 166.312C210.133 166.312 209.719 165.581 209.719 164.68C209.719 163.779 210.132 163.048 210.642 163.048C211.152 163.048 211.565 163.778 211.565 164.68Z" fill="#494949"/>
<path d="M201.844 169.24C200.984 169.24 200.287 169.798 200.287 170.486C200.287 171.174 200.984 171.732 201.844 171.732C202.278 171.732 202.669 171.59 202.952 171.361C203.445 172.032 204.347 172.487 205.391 172.487C206.394 172.487 207.27 172.069 207.775 171.441C208.045 171.62 208.386 171.732 208.764 171.732C209.624 171.732 210.321 171.174 210.321 170.486C210.321 169.798 209.624 169.24 208.764 169.24" fill="white"/>
<path d="M201.844 169.24C200.984 169.24 200.287 169.798 200.287 170.486C200.287 171.174 200.984 171.732 201.844 171.732C202.278 171.732 202.669 171.59 202.952 171.361C203.445 172.032 204.347 172.487 205.391 172.487C206.394 172.487 207.27 172.069 207.775 171.441C208.045 171.62 208.386 171.732 208.764 171.732C209.624 171.732 210.321 171.174 210.321 170.486C210.321 169.798 209.624 169.24 208.764 169.24" stroke="#494949" stroke-width="1.1663" stroke-miterlimit="10" stroke-linecap="round" stroke-linejoin="round"/>
<path d="M203.364 177.073H207.352" stroke="#494949" stroke-width="1.1663" stroke-miterlimit="10" stroke-linecap="round" stroke-linejoin="round"/>
<path d="M191.48 161.273C191.48 161.273 191.622 165.105 192.899 164.112C194.176 163.118 194.602 156.589 193.467 155.738C192.332 154.886 191.48 159.286 191.48 161.273Z" fill="#494949" stroke="#494949" stroke-width="1.1663" stroke-miterlimit="10" stroke-linecap="round" stroke-linejoin="round"/>
<path d="M216.114 161.273C216.114 161.273 216.256 165.105 217.533 164.112C218.81 163.118 219.236 156.589 218.101 155.738C216.966 154.886 216.114 159.286 216.114 161.273Z" fill="#494949" stroke="#494949" stroke-width="1.1663" stroke-miterlimit="10" stroke-linecap="round" stroke-linejoin="round"/>
<path d="M191.48 158.151C191.48 158.151 191.911 158.496 191.903 158.668C193.75 159.67 198.002 161.511 204.881 161.883C210.786 162.202 215.846 160.103 218.851 158.456C218.835 157.941 218.824 157.638 218.824 157.636C218.65 153.161 215.329 150.186 211.216 149.041C207.285 147.946 202.771 148.132 198.976 149.651C197.012 150.437 195.225 151.623 193.913 153.299C193.477 153.855 190.783 157.592 191.48 158.151Z" fill="#4C4C4C" stroke="#494949" stroke-width="1.1663" stroke-miterlimit="10" stroke-linecap="round" stroke-linejoin="round"/>
<path d="M191.916 158.398C191.916 158.398 196.687 159.734 204.893 159.352C213.099 158.97 218.812 158.399 218.812 158.399C218.812 158.399 213.216 164.08 205.01 164.462C196.14 164.874 191.916 158.398 191.916 158.398Z" fill="#4C4C4C" stroke="#494949" stroke-width="1.1663" stroke-miterlimit="10" stroke-linecap="round" stroke-linejoin="round"/>
<path d="M170.955 215.776L172.293 225.336L182.618 227.822L193.133 223.615L192.369 215.011L170.955 215.776Z" fill="#494949" stroke="#494949" stroke-width="1.1663" stroke-miterlimit="10" stroke-linecap="round" stroke-linejoin="round"/>
<path d="M183.765 223.52C183.765 222.517 182.952 221.704 181.949 221.704C180.946 221.704 180.133 222.517 180.133 223.52C180.133 224.523 180.946 225.336 181.949 225.336C182.952 225.336 183.765 224.523 183.765 223.52Z" fill="#4C4C4C" stroke="#494949" stroke-width="1.1663" stroke-miterlimit="10" stroke-linecap="round" stroke-linejoin="round"/>
<path d="M233.76 261.251H173.126V270.795H233.76V261.251Z" fill="#4C4C4C" stroke="#494949" stroke-width="1.1663" stroke-miterlimit="10" stroke-linecap="round" stroke-linejoin="round"/>
<path d="M184.776 273.602H171.582C170.109 273.602 168.915 272.408 168.915 270.935V264.478C168.915 263.005 170.109 261.811 171.582 261.811H184.776C186.249 261.811 187.443 263.005 187.443 264.478V270.935C187.442 272.408 186.248 273.602 184.776 273.602Z" fill="#4C4C4C" stroke="#494949" stroke-width="1.1663" stroke-miterlimit="10" stroke-linecap="round" stroke-linejoin="round"/>
<path d="M233.059 273.602H219.865C218.392 273.602 217.198 272.408 217.198 270.935V264.478C217.198 263.005 218.392 261.811 219.865 261.811H233.059C234.532 261.811 235.726 263.005 235.726 264.478V270.935C235.725 272.408 234.531 273.602 233.059 273.602Z" fill="#4C4C4C" stroke="#494949" stroke-width="1.1663" stroke-miterlimit="10" stroke-linecap="round" stroke-linejoin="round"/>
<path d="M211.023 261.812H197.829V270.233H211.023V261.812Z" fill="white" stroke="#494949" stroke-width="1.1663" stroke-miterlimit="10" stroke-linecap="round" stroke-linejoin="round"/>
<path d="M156.283 241.32C156.283 241.32 147.861 240.758 144.774 235.425" stroke="#494949" stroke-width="1.1663" stroke-miterlimit="10" stroke-linecap="round" stroke-linejoin="round"/>
<path d="M249.901 216.617C257.575 216.617 263.796 210.082 263.796 202.02C263.796 193.958 257.575 187.423 249.901 187.423C242.227 187.423 236.006 193.958 236.006 202.02C236.006 210.082 242.227 216.617 249.901 216.617Z" fill="#659961" stroke="#494949" stroke-width="1.1663" stroke-miterlimit="10" stroke-linecap="round" stroke-linejoin="round"/>
<path d="M249.901 204.376C255.91 204.376 260.781 200.011 260.781 194.627C260.781 189.243 255.91 184.878 249.901 184.878C243.892 184.878 239.021 189.243 239.021 194.627C239.021 200.011 243.892 204.376 249.901 204.376Z" fill="#659961" stroke="#494949" stroke-width="1.1663" stroke-miterlimit="10" stroke-linecap="round" stroke-linejoin="round"/>
<path d="M249.901 197.207C255.91 197.207 260.781 192.842 260.781 187.458C260.781 182.074 255.91 177.709 249.901 177.709C243.892 177.709 239.021 182.074 239.021 187.458C239.021 192.842 243.892 197.207 249.901 197.207Z" fill="white" stroke="#494949" stroke-width="1.1663" stroke-miterlimit="10" stroke-linecap="round" stroke-linejoin="round"/>
<path d="M232.422 166.437C232.422 166.437 232.606 180.819 233.344 185.06C234.082 189.301 237.032 194.832 241.088 194.832C245.144 194.832 249.016 193.357 249.016 193.357C249.016 193.357 253.81 195.938 258.42 195.201C263.03 194.463 262.292 188.01 262.292 185.244C262.292 182.478 261.739 161.643 261.739 161.643C261.739 161.643 262.108 159.615 260.264 159.246C258.42 158.877 257.498 158.877 257.498 158.877V154.452C257.498 154.452 256.76 152.977 254.363 152.977C251.966 152.977 251.782 153.53 251.782 153.53V149.474C251.782 149.474 249.789 146.244 247.172 147.815C245.328 148.921 245.328 150.765 245.328 150.765L245.144 154.637C245.144 154.637 240.719 152.977 240.35 155.559C239.981 158.14 239.244 173.998 239.244 173.998C239.244 173.998 238.691 169.019 237.769 166.623C236.847 164.224 232.422 164.224 232.422 166.437Z" fill="white" stroke="#494949" stroke-width="1.1663" stroke-miterlimit="10" stroke-linecap="round" stroke-linejoin="round"/>
<path d="M245.145 154.636L245.514 171.6" stroke="#494949" stroke-width="1.1663" stroke-miterlimit="10" stroke-linecap="round" stroke-linejoin="round"/>
<path d="M251.783 153.53L251.967 171.784" stroke="#494949" stroke-width="1.1663" stroke-miterlimit="10" stroke-linecap="round" stroke-linejoin="round"/>
<path d="M257.499 158.877L257.13 171.6" stroke="#494949" stroke-width="1.1663" stroke-miterlimit="10" stroke-linecap="round" stroke-linejoin="round"/>
<path d="M242.748 171.415L259.527 172.153" stroke="#494949" stroke-width="1.1663" stroke-miterlimit="10" stroke-linecap="round" stroke-linejoin="round"/>
<path d="M239.244 173.997C239.244 173.997 239.227 176.447 241.048 177.585C242.87 178.723 246.968 181.683 247.423 186.465" stroke="#494949" stroke-width="1.1663" stroke-miterlimit="10" stroke-linecap="round" stroke-linejoin="round"/>
<path d="M349.98 128.814V130.995H344.653V138.752H351.195V140.963H342.224V119.157H351.195V121.368H344.653V128.813L349.98 128.814Z" fill="#494949"/>
<path d="M358.297 119.157C361.723 119.157 363.157 120.902 363.157 124.142V125.917C363.157 128.316 362.316 129.811 360.446 130.403C362.44 130.995 363.187 132.616 363.187 134.951V138.347C363.187 139.312 363.218 140.216 363.623 140.963H361.161C360.882 140.34 360.757 139.779 360.757 138.315V134.889C360.757 132.427 359.603 131.649 357.578 131.649H355.865V140.963H353.436V119.157H358.297ZM357.674 129.438C359.605 129.438 360.758 128.814 360.758 126.447V124.36C360.758 122.398 360.041 121.369 358.235 121.369H355.866V129.438H357.674Z" fill="#494949"/>
<path d="M370.571 119.157C373.997 119.157 375.431 120.902 375.431 124.142V125.917C375.431 128.316 374.59 129.811 372.72 130.403C374.714 130.995 375.461 132.616 375.461 134.951V138.347C375.461 139.312 375.493 140.216 375.898 140.963H373.436C373.157 140.34 373.032 139.779 373.032 138.315V134.889C373.032 132.427 371.879 131.649 369.853 131.649H368.14V140.963H365.711V119.157H370.571ZM369.948 129.438C371.879 129.438 373.032 128.814 373.032 126.447V124.36C373.032 122.398 372.315 121.369 370.509 121.369H368.14V129.438H369.948Z" fill="#494949"/>
<path d="M377.797 124.421C377.797 121.089 379.449 118.94 382.782 118.94C386.145 118.94 387.797 121.09 387.797 124.421V135.699C387.797 139.001 386.145 141.181 382.782 141.181C379.449 141.181 377.797 139.001 377.797 135.699V124.421ZM380.196 135.824C380.196 137.818 381.038 138.97 382.782 138.97C384.557 138.97 385.367 137.818 385.367 135.824V124.297C385.367 122.335 384.557 121.151 382.782 121.151C381.037 121.151 380.196 122.335 380.196 124.297V135.824Z" fill="#494949"/>
<path d="M394.96 119.157C398.386 119.157 399.82 120.902 399.82 124.142V125.917C399.82 128.316 398.979 129.811 397.109 130.403C399.103 130.995 399.85 132.616 399.85 134.951V138.347C399.85 139.312 399.881 140.216 400.287 140.963H397.825C397.546 140.34 397.421 139.779 397.421 138.315V134.889C397.421 132.427 396.267 131.649 394.242 131.649H392.529V140.963H390.1V119.157H394.96ZM394.338 129.438C396.269 129.438 397.422 128.814 397.422 126.447V124.36C397.422 122.398 396.705 121.369 394.899 121.369H392.53V129.438H394.338Z" fill="#494949"/>
<path d="M329.376 264.883V267.094H324.36V276.533H321.931V254.727H330.59V256.938H324.36V264.883H329.376Z" fill="#494949"/>
<path d="M332.334 259.991C332.334 256.659 333.985 254.509 337.319 254.509C340.682 254.509 342.334 256.659 342.334 259.991V271.269C342.334 274.571 340.682 276.751 337.319 276.751C333.986 276.751 332.334 274.571 332.334 271.269V259.991ZM334.733 271.393C334.733 273.387 335.574 274.539 337.319 274.539C339.094 274.539 339.904 273.387 339.904 271.393V259.866C339.904 257.904 339.094 256.72 337.319 256.72C335.574 256.72 334.733 257.904 334.733 259.866V271.393Z" fill="#494949"/>
<path d="M349.499 254.727C352.925 254.727 354.358 256.472 354.358 259.712V261.487C354.358 263.886 353.518 265.381 351.649 265.972C353.643 266.564 354.39 268.185 354.39 270.52V273.916C354.39 274.881 354.421 275.785 354.827 276.532H352.367C352.086 275.909 351.962 275.348 351.962 273.884V270.458C351.962 267.996 350.808 267.218 348.783 267.218H347.07V276.532H344.641V254.726H349.499V254.727ZM348.876 265.007C350.807 265.007 351.96 264.383 351.96 262.016V259.929C351.96 257.967 351.243 256.938 349.437 256.938H347.068V265.007H348.876Z" fill="#494949"/>
<path d="M361.803 254.727C365.198 254.727 366.537 256.347 366.537 259.556V260.584C366.537 262.89 365.883 264.322 363.982 264.913C366.1 265.505 366.91 267.187 366.91 269.586V271.424C366.91 274.696 365.321 276.533 361.926 276.533H356.911V254.727H361.803ZM361.21 263.978C363.142 263.978 364.138 263.355 364.138 261.081V259.804C364.138 257.872 363.484 256.937 361.739 256.937H359.34V263.977H361.21V263.978ZM361.927 274.322C363.703 274.322 364.512 273.387 364.512 271.362V269.43C364.512 267.001 363.547 266.191 361.459 266.191H359.341V274.322H361.927Z" fill="#494949"/>
<path d="M371.552 254.727V276.533H369.123V254.727H371.552Z" fill="#494949"/>
<path d="M379.153 254.727C382.549 254.727 384.106 256.784 384.106 260.147V271.144C384.106 274.476 382.549 276.533 379.153 276.533H374.045V254.727H379.153ZM379.122 274.322C380.867 274.322 381.708 273.231 381.708 271.238V260.023C381.708 258.029 380.866 256.939 379.092 256.939H376.474V274.323H379.122V274.322Z" fill="#494949"/>
<path d="M391.488 254.727C394.884 254.727 396.441 256.784 396.441 260.147V271.144C396.441 274.476 394.884 276.533 391.488 276.533H386.38V254.727H391.488ZM391.456 274.322C393.201 274.322 394.042 273.231 394.042 271.238V260.023C394.042 258.029 393.201 256.939 391.426 256.939H388.808V274.323H391.456V274.322Z" fill="#494949"/>
<path d="M406.471 264.383V266.564H401.144V274.321H407.686V276.532H398.715V254.726H407.686V256.937H401.144V264.382H406.471V264.383Z" fill="#494949"/>
<path d="M412.079 276.533H409.899V254.727H412.983L418.029 270.489V254.727H420.179V276.533H417.654L412.078 258.902V276.533H412.079Z" fill="#494949"/>
<path d="M306.545 208.256L328.789 155.648H342.136V208.256H347.92V219.378H342.136V233.504H330.125V219.378H306.546L306.545 208.256ZM330.124 208.256V179.005L317.777 208.256H330.124Z" fill="#494949"/>
<path d="M352.479 174.334C352.479 161.878 359.04 154.76 371.053 154.76C383.064 154.76 389.627 161.878 389.627 174.334V214.819C389.627 227.275 383.064 234.393 371.053 234.393C359.04 234.393 352.479 227.275 352.479 214.819V174.334ZM364.713 215.598C364.713 221.159 367.16 223.272 371.053 223.272C374.946 223.272 377.393 221.159 377.393 215.598V173.556C377.393 167.995 374.946 165.882 371.053 165.882C367.16 165.882 364.713 167.995 364.713 173.556V215.598Z" fill="#494949"/>
<path d="M421.103 174.78C421.103 167.773 418.656 165.882 414.763 165.882C410.87 165.882 408.423 167.995 408.423 173.556V178.561H396.856V174.334C396.856 161.878 403.083 154.76 415.096 154.76C427.107 154.76 433.336 161.878 433.336 174.334V176.336C433.336 184.679 430.666 189.906 424.771 192.352C430.889 195.022 433.336 200.804 433.336 208.701V214.819C433.336 227.275 427.107 234.393 415.096 234.393C403.083 234.393 396.856 227.275 396.856 214.819V208.367H408.423V215.597C408.423 221.158 410.87 223.271 414.763 223.271C418.656 223.271 421.103 221.38 421.103 214.485V208.367C421.103 201.138 418.656 198.468 413.095 198.468H408.979V187.346H413.761C418.322 187.346 421.102 185.344 421.102 179.115V174.78H421.103Z" fill="#494949"/>
<path d="M86.8708 446.504H72.6138L91.6228 313.986H105.88L86.8708 446.504Z" fill="#494949" stroke="#494949" stroke-width="1.1663" stroke-miterlimit="10"/>
<path d="M115.385 446.504H129.641L110.632 313.986H96.3757L115.385 446.504Z" fill="white" stroke="#494949" stroke-width="1.1663" stroke-miterlimit="10"/>
<path d="M289.182 446.504H274.925L293.934 313.986H308.191L289.182 446.504Z" fill="#494949" stroke="#494949" stroke-width="1.1663" stroke-miterlimit="10"/>
<path d="M317.695 446.504H331.952L312.943 313.986H298.686L317.695 446.504Z" fill="white" stroke="#494949" stroke-width="1.1663" stroke-miterlimit="10"/>
<path d="M327.661 293.209H55.7339V319.572H327.661V293.209Z" fill="#659961" stroke="#494949" stroke-width="1.1663" stroke-miterlimit="10"/>
<path d="M334.289 293.209H62.3618V319.572H334.289V293.209Z" fill="#659961" stroke="#494949" stroke-width="1.1663" stroke-miterlimit="10"/>
<path d="M66.813 319.573H89.895L101.822 293.209H78.739L66.813 319.573Z" fill="#494949"/>
<path d="M158.17 293.209H135.088L123.161 319.573H146.243L158.17 293.209Z" fill="#494949"/>
<path d="M327.215 293.209H304.133L292.206 319.573H315.288L327.215 293.209Z" fill="#494949"/>
<path d="M270.867 293.209H247.784L235.857 319.573H258.94L270.867 293.209Z" fill="#494949"/>
<path d="M214.518 293.209H191.436L179.509 319.573H202.592L214.518 293.209Z" fill="#494949"/>
<path d="M332.804 304.904H287.801" stroke="#494949" stroke-width="1.1663" stroke-miterlimit="10"/>
<path d="M332.014 309.313H324.908" stroke="#494949" stroke-width="1.1663" stroke-miterlimit="10"/>
<path d="M61.209 308.211H106.212" stroke="#494949" stroke-width="1.1663" stroke-miterlimit="10"/>
<path d="M61.999 303.251H118.844" stroke="#494949" stroke-width="1.1663" stroke-miterlimit="10"/>
<path d="M408.51 440.719H331.371V446.504H408.51V440.719Z" fill="#494949" stroke="#494949" stroke-width="1.1663" stroke-miterlimit="10" stroke-linecap="round" stroke-linejoin="round"/>
<path d="M395.493 440.557H344.389L364.422 331.598H375.46L395.493 440.557Z" fill="#659961" stroke="#494949" stroke-width="1.1663" stroke-miterlimit="10" stroke-linecap="round" stroke-linejoin="round"/>
<path d="M356.976 372.096H382.906L380.424 358.597H359.458L356.976 372.096Z" fill="white" stroke="#494949" stroke-width="1.1663" stroke-miterlimit="10" stroke-linecap="round" stroke-linejoin="round"/>
<path d="M387.812 422.375L389.094 429.822" stroke="#494949" stroke-width="1.1663" stroke-miterlimit="10" stroke-linecap="round" stroke-linejoin="round"/>
<path d="M373.223 337.618L386.198 412.995" stroke="#494949" stroke-width="1.1663" stroke-miterlimit="10" stroke-linecap="round" stroke-linejoin="round"/>
<path d="M450.01 446.504H456.923" stroke="#494949" stroke-width="1.1663" stroke-miterlimit="10" stroke-linecap="round" stroke-linejoin="round"/>
<path d="M39.3721 446.504H440.364" stroke="#494949" stroke-width="1.1663" stroke-miterlimit="10" stroke-linecap="round" stroke-linejoin="round"/>
</svg>
