<svg width="24" height="24" viewBox="0 0 24 24" fill="none" xmlns="http://www.w3.org/2000/svg">
<g id="SVG">
<path id="Vector" d="M12 1.99414C17.523 1.99414 22 6.47214 22 11.9941C22 17.5161 17.523 21.9941 12 21.9941C6.477 21.9941 2 17.5161 2 11.9941C2 6.47214 6.477 1.99414 12 1.99414ZM12 3.66114C7.405 3.66114 3.667 7.39914 3.667 11.9941C3.667 16.5891 7.405 20.3271 12 20.3271C16.595 20.3271 20.333 16.5891 20.333 11.9941C20.333 7.39914 16.595 3.66114 12 3.66114ZM11.9987 14.4963C12.5502 14.4963 12.9973 14.9435 12.9973 15.495C12.9973 16.0465 12.5502 16.4937 11.9987 16.4937C11.4471 16.4937 11 16.0465 11 15.495C11 14.9435 11.4471 14.4963 11.9987 14.4963ZM11.9945 6.99414C12.3742 6.99384 12.6882 7.27574 12.7381 7.64178L12.7451 7.74354L12.7487 12.2451C12.749 12.6593 12.4135 12.9954 11.9993 12.9957C11.6196 12.996 11.3055 12.7141 11.2556 12.3481L11.2487 12.2463L11.2451 7.74474C11.2447 7.33053 11.5802 6.99447 11.9945 6.99414Z" fill="#E4981B"/>
</g>
</svg>
