<svg width="31" height="28" viewBox="0 0 31 28" fill="none" xmlns="http://www.w3.org/2000/svg">
<path fill-rule="evenodd" clip-rule="evenodd" d="M20.4086 3.442C17.2898 2.21818 15.5292 1.60626 14.9758 1.45329C14.4225 1.60626 12.6619 2.21818 9.54305 3.442C8.03881 3.99837 6.92886 4.45481 6.16009 4.77095C5.97764 4.84598 5.81442 4.9131 5.66969 4.97178C6.21471 7.15663 6.85734 11.5677 6.39584 18.8628H5.48091C6.20282 8.06259 4.41211 4.05392 4.41211 4.05392C4.41211 4.05392 5.66969 3.51849 9.34184 2.0652C13.2152 0.535421 14.9758 0 14.9758 0C14.9758 0 16.7867 0.535421 20.7104 2.0652C24.3825 3.51849 25.6401 4.05392 25.6401 4.05392C25.6401 4.05392 23.8494 8.06259 24.5713 18.8628H23.558C23.1446 11.5677 23.7865 7.15663 24.2819 4.97178C23.9913 4.8613 23.6481 4.72088 23.2407 4.55414C22.5198 4.25917 21.5977 3.88181 20.4086 3.442Z" fill="#2964C2"/>
<path d="M0.313312 12.9004C2.56224 17.4576 4.23844 20.0182 9.91424 22.8147L9.9161 22.8095C3.60348 19.2493 -0.23667 13.4408 3.90227 8.13232C3.50497 16.2891 6.96699 21.157 15.021 24.3802C23.0751 21.157 26.5371 16.2891 26.1398 8.13232C30.2787 13.4408 26.4386 19.2493 20.1259 22.8095L20.1278 22.8147C25.8036 20.0182 27.4798 17.4576 29.7287 12.9004C31.7104 19.0918 23.8677 22.6325 18.1309 24.2701C22.5238 23.8781 25.88 22.1815 29.1827 18.9097C28.9632 24.1522 21.7849 24.9796 16.9721 24.8721C20.1698 25.4498 23.2206 25.004 26.6913 23.5936C24.7269 27.3251 19.7498 26.6225 15.8343 25.2833C17.9629 26.3085 20.3493 26.763 23.2397 26.7734C21.0671 28.437 18.591 27.9652 16.3554 26.7231C16.8862 27.1637 17.4971 27.5731 18.1958 27.9652C17.058 28.1248 16.1283 27.7189 15.4448 27.0839C15.3398 27.5071 15.1929 27.8471 15.0211 27.8923C14.8493 27.8471 14.7022 27.5071 14.5973 27.0839C13.9138 27.7189 12.9841 28.1248 11.8462 27.9652C12.545 27.5731 13.1559 27.1637 13.6866 26.7231C11.4511 27.9652 8.97494 28.437 6.80236 26.7734C9.69277 26.763 12.0791 26.3085 14.2078 25.2833C10.2922 26.6225 5.31518 27.3251 3.3507 23.5936C6.82147 25.004 9.87224 25.4498 13.07 24.8721C8.25712 24.9796 1.07886 24.1522 0.859315 18.9097C4.16207 22.1815 7.51826 23.8781 11.9111 24.2701C6.1743 22.6325 -1.66834 19.0918 0.313312 12.9004Z" fill="#2964C2"/>
<path d="M15.0212 23L16.3177 25.2327L15.0212 27.4655L13.7246 25.2327L15.0212 23Z" fill="#2964C2"/>
<path d="M22.2694 17.7178L21.6824 10.9423C21.6774 10.8686 21.6192 10.81 21.5477 10.8L21.0588 10.733L20.8476 10.3913C20.8476 10.3913 19.5805 9.64111 17.412 9.64111C15.2436 9.64111 15.0075 10.2992 15.0075 10.2992C15.0075 10.2992 14.773 9.64111 12.6046 9.64111C10.4361 9.64111 9.16897 10.3913 9.16897 10.3913L8.95778 10.733L8.46722 10.8C8.39405 10.81 8.33917 10.8686 8.33252 10.9423L7.74385 17.7178C7.74385 17.7229 7.74219 17.7262 7.74219 17.7312C7.74219 17.7731 7.75882 17.8133 7.78709 17.8434C7.81536 17.8736 7.85693 17.8903 7.8985 17.8903H7.90848L14.2176 17.4616C14.3207 17.5654 14.5551 17.7329 15.0041 17.7329C15.4548 17.7329 15.6876 17.5654 15.7907 17.4616L22.0998 17.8903H22.1114C22.153 17.8903 22.1929 17.8736 22.2228 17.8434C22.2511 17.815 22.2677 17.7748 22.2677 17.7329C22.2694 17.7279 22.2694 17.7229 22.2694 17.7178ZM8.18951 14.9815C8.16956 15.1891 8.15126 15.3951 8.13297 15.5927C8.09473 15.9896 8.05648 16.3597 8.02156 16.6762C7.9883 16.9927 7.9567 17.2573 7.93509 17.4432C7.91347 17.6274 7.90016 17.7329 7.90016 17.7329C7.90016 17.7329 7.90515 17.6274 7.91513 17.4415C7.92677 17.2556 7.94007 16.991 7.96169 16.6729C7.98331 16.3547 8.00992 15.9829 8.03985 15.586C8.05648 15.3868 8.07311 15.1824 8.08807 14.9731C8.10637 14.7655 8.12299 14.5528 8.14129 14.3401C8.16124 14.1291 8.17953 13.9164 8.19783 13.7088C8.21778 13.5011 8.23774 13.2951 8.25603 13.0975C8.29428 12.7007 8.33086 12.3306 8.36578 12.0141C8.39904 11.6976 8.4323 11.433 8.45225 11.2471C8.47387 11.0629 8.48717 10.9574 8.48717 10.9574C8.48717 10.9574 8.48218 11.0629 8.47054 11.2488C8.4589 11.4346 8.4456 11.6992 8.42398 12.0174C8.40403 12.3356 8.37576 12.7074 8.34583 13.1042C8.3292 13.3035 8.31423 13.5078 8.2976 13.7171C8.27931 13.9248 8.26268 14.1375 8.24439 14.3502C8.22776 14.5612 8.2078 14.7722 8.18951 14.9815ZM22.0815 17.4415C22.0632 17.2573 22.0366 16.9927 22.0067 16.6745C21.9767 16.3564 21.9418 15.9863 21.9036 15.5894C21.8686 15.1925 21.8304 14.7688 21.7922 14.3451C21.7572 13.9215 21.7206 13.4994 21.6874 13.1009C21.6558 12.704 21.6275 12.3339 21.6009 12.0157C21.576 11.6976 21.5577 11.433 21.5427 11.2471C21.5327 11.0964 21.5261 10.9992 21.5244 10.9674C21.5278 10.9976 21.5377 11.0964 21.5527 11.2471C21.571 11.4313 21.5976 11.6959 21.6292 12.0141C21.6591 12.3306 21.694 12.7023 21.7323 13.0992C21.7672 13.4961 21.8055 13.9198 21.8437 14.3435C21.8786 14.7671 21.9152 15.1908 21.9485 15.5877C21.9801 15.9846 22.01 16.3547 22.0349 16.6729C22.0582 16.991 22.0782 17.2556 22.0915 17.4415C22.1015 17.5805 22.1081 17.6743 22.1098 17.7128C22.1064 17.6743 22.0965 17.5805 22.0815 17.4415Z" fill="#E8F1FF"/>
<path d="M22.2694 17.7178L21.6824 10.9423C21.6774 10.8686 21.6192 10.81 21.5477 10.8L21.0588 10.733L20.8476 10.3913C20.8476 10.3913 19.5805 9.64111 17.412 9.64111C15.2436 9.64111 15.0075 10.2992 15.0075 10.2992C15.0075 10.2992 14.773 9.64111 12.6046 9.64111C10.4361 9.64111 9.16897 10.3913 9.16897 10.3913L8.95778 10.733L8.46722 10.8C8.39405 10.81 8.33917 10.8686 8.33252 10.9423L7.74385 17.7178C7.74385 17.7229 7.74219 17.7262 7.74219 17.7312C7.74219 17.7731 7.75882 17.8133 7.78709 17.8434C7.81536 17.8736 7.85693 17.8903 7.8985 17.8903H7.90848L14.2176 17.4616C14.3207 17.5654 14.5551 17.7329 15.0041 17.7329C15.4548 17.7329 15.6876 17.5654 15.7907 17.4616L22.0998 17.8903H22.1114C22.153 17.8903 22.1929 17.8736 22.2228 17.8434C22.2511 17.815 22.2677 17.7748 22.2677 17.7329C22.2694 17.7279 22.2694 17.7229 22.2694 17.7178ZM14.9892 16.904H15.0208L15.049 16.9056C15.069 16.9073 15.0923 16.909 15.1122 16.9107C15.1538 16.9157 15.1937 16.9241 15.2336 16.9375C15.3118 16.9626 15.3783 17.0095 15.4215 17.0564C15.4648 17.1016 15.4897 17.1468 15.508 17.1769C15.5246 17.2071 15.5329 17.2272 15.5329 17.2272C15.5329 17.2272 15.5147 17.2171 15.4847 17.1987C15.4548 17.1803 15.4132 17.1535 15.365 17.1284C15.3417 17.115 15.3151 17.1032 15.2868 17.0949C15.2586 17.0848 15.2286 17.0781 15.197 17.0731C15.1671 17.0681 15.1322 17.0664 15.0973 17.063C15.079 17.0614 15.0623 17.0614 15.0457 17.0614H14.9908C14.9193 17.0631 14.8528 17.0681 14.7913 17.0882C14.7314 17.1049 14.6699 17.1334 14.615 17.1568C14.5585 17.1786 14.5103 17.1937 14.477 17.2004C14.4421 17.2071 14.4221 17.2104 14.4221 17.2104C14.4221 17.2104 14.4371 17.1953 14.4637 17.1736C14.4886 17.1501 14.5252 17.1166 14.5685 17.0781C14.6134 17.0396 14.6666 16.9927 14.7414 16.9575C14.8179 16.9207 14.906 16.9056 14.9892 16.904ZM8.18951 14.9815C8.16956 15.1891 8.15126 15.3951 8.13297 15.5927C8.09473 15.9896 8.05648 16.3597 8.02156 16.6762C7.9883 16.9927 7.9567 17.2573 7.93509 17.4432C7.91347 17.6274 7.90016 17.7329 7.90016 17.7329C7.90016 17.7329 7.90515 17.6274 7.91513 17.4415C7.92677 17.2556 7.94007 16.991 7.96169 16.6729C7.98331 16.3547 8.00992 15.9829 8.03985 15.586C8.05648 15.3868 8.07311 15.1824 8.08807 14.9731C8.10637 14.7655 8.12299 14.5528 8.14129 14.3401C8.16124 14.1291 8.17953 13.9164 8.19783 13.7088C8.21778 13.5011 8.23774 13.2951 8.25603 13.0975C8.29428 12.7007 8.33086 12.3306 8.36578 12.0141C8.39904 11.6976 8.4323 11.433 8.45225 11.2471C8.47387 11.0629 8.48717 10.9574 8.48717 10.9574C8.48717 10.9574 8.48218 11.0629 8.47054 11.2488C8.4589 11.4346 8.4456 11.6992 8.42398 12.0174C8.40403 12.3356 8.37576 12.7074 8.34583 13.1042C8.3292 13.3035 8.31423 13.5078 8.2976 13.7171C8.27931 13.9248 8.26268 14.1375 8.24439 14.3502C8.22776 14.5612 8.2078 14.7722 8.18951 14.9815ZM8.75989 11.2555L9.24214 10.4717C9.41674 10.3763 10.639 9.74829 12.6029 9.74829C14.4637 9.74829 14.8495 10.239 14.9027 10.326V16.5891C14.7048 16.4367 14.1777 16.1621 12.9704 16.1621C11.537 16.1621 9.31364 16.7599 8.70502 16.9324L9.16065 10.8318L8.54538 16.9793C8.53374 16.9994 8.38574 17.2188 8.26767 17.3863L8.75989 11.2555ZM14.1843 17.0848C13.2065 17.1468 9.64622 17.3712 8.48218 17.4449C8.5803 17.4047 8.68007 17.3779 8.68007 17.3779C8.68007 17.3779 8.57032 17.3678 8.45558 17.3729C8.43729 17.3745 8.41899 17.3745 8.40236 17.3762C8.45724 17.2975 8.52708 17.197 8.61189 17.0697C8.76322 17.0262 9.37683 16.852 10.1468 16.6762C10.0104 16.7164 9.87903 16.7566 9.7593 16.7918C9.50155 16.8755 9.28704 16.9492 9.13571 16.9994C9.01432 17.043 8.93616 17.0697 8.90955 17.0798C8.93616 17.0731 9.01598 17.053 9.1407 17.0195C9.29369 16.9776 9.51153 16.9174 9.77427 16.8504C10.0353 16.7784 10.3413 16.6997 10.6722 16.626C11.0015 16.5489 11.3557 16.4803 11.7132 16.4334C11.8912 16.4083 12.0708 16.3882 12.2454 16.3731C12.4216 16.3597 12.5962 16.3513 12.7642 16.3513C13.1018 16.3463 13.4161 16.3681 13.6838 16.4049C13.9515 16.4401 14.1727 16.4887 14.324 16.5305C14.4005 16.5489 14.4604 16.5674 14.5003 16.5791C14.5418 16.5908 14.5635 16.5975 14.5635 16.5975C14.5635 16.5975 14.5418 16.5891 14.5036 16.5741C14.4637 16.559 14.4055 16.5339 14.3307 16.5104C14.1793 16.4585 13.9615 16.3965 13.6921 16.3463C13.4942 16.3111 13.2681 16.2843 13.0269 16.2693C14.3656 16.2793 14.8112 16.6394 14.9027 16.7298V16.7415C14.7414 16.775 14.5917 16.8805 14.4903 16.9709L13.8268 17.0547L14.1843 17.0848ZM15.6843 17.3544C15.6693 17.3712 15.651 17.3896 15.6261 17.4097C15.6028 17.4298 15.5745 17.4516 15.5429 17.47C15.5097 17.4901 15.4731 17.5085 15.4315 17.5252C15.3916 17.542 15.3484 17.5554 15.3018 17.5671C15.2785 17.5738 15.2552 17.5772 15.2303 17.5805C15.2053 17.5855 15.1821 17.5889 15.1571 17.5906C15.1056 17.5973 15.0573 17.5973 15.0075 17.6006C14.9559 17.5973 14.906 17.5973 14.8561 17.5906C14.8312 17.5889 14.8063 17.5855 14.783 17.5805C14.758 17.5755 14.7347 17.5738 14.7115 17.5654C14.6649 17.5554 14.6217 17.5403 14.5801 17.5236C14.5402 17.5068 14.5036 17.4884 14.4703 17.4683C14.4371 17.4499 14.4088 17.4281 14.3855 17.408C14.3623 17.3879 14.3423 17.3695 14.329 17.3528C14.3024 17.3243 14.2907 17.3025 14.2891 17.2975C14.2924 17.3025 14.3074 17.3209 14.3356 17.3461C14.3689 17.3745 14.4188 17.4114 14.4853 17.4432C14.5186 17.4599 14.5551 17.4733 14.5951 17.4867C14.635 17.5001 14.6782 17.5118 14.7231 17.5202C14.768 17.5303 14.8146 17.537 14.8628 17.5403C14.911 17.5453 14.9609 17.5453 15.0075 17.547C15.0573 17.5453 15.1089 17.5453 15.1555 17.5403C15.2037 17.537 15.2502 17.5303 15.2935 17.5202C15.3384 17.5102 15.3816 17.5001 15.4215 17.4867C15.4614 17.4733 15.498 17.4583 15.5313 17.4432C15.5961 17.4097 15.6477 17.3745 15.6793 17.3461C15.7042 17.3243 15.7192 17.3075 15.7242 17.3008C15.7175 17.3109 15.7059 17.3293 15.6843 17.3544ZM21.2866 17.4281C19.9164 17.341 16.6687 17.1367 15.7973 17.0815L16.381 16.9894L15.523 16.9693C15.4199 16.8805 15.2719 16.7733 15.1089 16.7398V16.7281C15.192 16.6461 15.5512 16.3564 16.5573 16.2827C16.4209 16.3028 16.2912 16.3279 16.1748 16.3547C15.9354 16.415 15.7425 16.487 15.6111 16.5422C15.5446 16.569 15.4947 16.5942 15.4598 16.6109C15.4249 16.6276 15.4066 16.636 15.4066 16.636C15.4066 16.636 15.4265 16.6293 15.4631 16.6159C15.498 16.6042 15.5512 16.5824 15.6194 16.5623C15.7541 16.5171 15.9503 16.4568 16.1881 16.4133C16.4259 16.3681 16.7086 16.3329 17.0113 16.3329C17.3139 16.3262 17.6382 16.3497 17.9591 16.3899C18.2817 16.425 18.601 16.4836 18.8987 16.5489C19.198 16.6092 19.4741 16.6779 19.7102 16.7398C19.948 16.7985 20.1459 16.8504 20.2839 16.8872C20.4036 16.9174 20.4801 16.9375 20.4967 16.9408C20.4801 16.9341 20.4069 16.909 20.2889 16.8671C20.1542 16.8219 19.9596 16.7566 19.7268 16.6829C19.5672 16.6343 19.3892 16.5824 19.198 16.5305C20.2606 16.7415 21.2118 17.0111 21.4047 17.0664C21.4962 17.202 21.566 17.3059 21.6242 17.3879L20.7162 17.2506L21.2866 17.4281ZM21.4928 17.0128L20.8742 10.8301L21.3299 16.9358C20.7528 16.7733 18.4929 16.1604 17.0445 16.1604C15.8356 16.1604 15.3101 16.4351 15.1106 16.5875V10.3244C15.1604 10.2406 15.5329 9.74661 17.4104 9.74661C19.371 9.74661 20.5965 10.3746 20.7711 10.4701L21.2534 11.2538L21.7489 17.3829C21.6541 17.2523 21.5427 17.0848 21.4928 17.0128ZM22.0815 17.4415C22.0632 17.2573 22.0366 16.9927 22.0067 16.6745C21.9767 16.3564 21.9418 15.9863 21.9036 15.5894C21.8686 15.1925 21.8304 14.7688 21.7922 14.3451C21.7572 13.9215 21.7206 13.4994 21.6874 13.1009C21.6558 12.704 21.6275 12.3339 21.6009 12.0157C21.576 11.6976 21.5577 11.433 21.5427 11.2471C21.5327 11.0964 21.5261 10.9992 21.5244 10.9674C21.5278 10.9976 21.5377 11.0964 21.5527 11.2471C21.571 11.4313 21.5976 11.6959 21.6292 12.0141C21.6591 12.3306 21.694 12.7023 21.7323 13.0992C21.7672 13.4961 21.8055 13.9198 21.8437 14.3435C21.8786 14.7671 21.9152 15.1908 21.9485 15.5877C21.9801 15.9846 22.01 16.3547 22.0349 16.6729C22.0582 16.991 22.0782 17.2556 22.0915 17.4415C22.1015 17.5805 22.1081 17.6743 22.1098 17.7128C22.1064 17.6743 22.0965 17.5805 22.0815 17.4415Z" fill="#2964C2"/>
<path d="M17.515 16.7415C18.5793 16.8185 20.5581 17.0881 20.5581 17.0881C17.6247 16.3563 16.6453 16.4333 15.6592 16.6879C15.6592 16.6879 16.4491 16.6644 17.515 16.7415Z" fill="#2964C2"/>
<path d="M14.2458 16.6913C13.3628 16.4568 12.1938 16.3881 9.56641 17.0781C9.56641 17.0781 11.6301 16.8202 12.5829 16.7465C13.5374 16.6728 14.2458 16.6913 14.2458 16.6913Z" fill="#2964C2"/>
<path d="M19.9765 17.1648C19.7936 17.133 19.5807 17.0978 19.3513 17.0626C19.1218 17.0308 18.8757 17.0007 18.6295 16.9739C18.3834 16.9521 18.1357 16.932 17.9045 16.9169C17.6734 16.9052 17.4555 16.8968 17.2709 16.8918C17.0847 16.8901 16.9301 16.8901 16.822 16.8901C16.7139 16.8918 16.6523 16.8935 16.6523 16.8935C16.6523 16.8935 16.7139 16.9002 16.822 16.9102C16.9301 16.9186 17.083 16.932 17.2676 16.9504C17.4522 16.9655 17.6667 16.9856 17.8979 17.0074C18.129 17.0275 18.3735 17.0509 18.6196 17.0794C18.8657 17.1028 19.1101 17.1279 19.3396 17.1547C19.5691 17.1782 19.7853 17.2016 19.9682 17.2251C20.1528 17.2435 20.3058 17.2619 20.4139 17.2753C20.5219 17.287 20.5835 17.2937 20.5835 17.2937C20.5835 17.2937 20.5236 17.2803 20.4172 17.2552C20.3108 17.2301 20.1594 17.1999 19.9765 17.1648Z" fill="#2964C2"/>
<path d="M13.8571 16.8369C13.7457 16.8386 13.6144 16.8419 13.4747 16.8436C13.335 16.8503 13.1853 16.857 13.0357 16.8637C12.886 16.8754 12.738 16.8872 12.5983 16.8972C12.4586 16.9123 12.3289 16.9257 12.2175 16.9357C12.1061 16.9508 12.013 16.9625 11.9481 16.9709C11.8833 16.9809 11.8467 16.9876 11.8467 16.9876C11.8467 16.9876 11.8849 16.9893 11.9498 16.991C12.0146 16.991 12.1094 16.9927 12.2208 16.9943C12.3323 16.9927 12.4636 16.9893 12.6033 16.9876C12.743 16.9809 12.8927 16.9742 13.0423 16.9675C13.192 16.9558 13.34 16.9441 13.4797 16.934C13.6193 16.919 13.7491 16.9056 13.8605 16.8955C13.9719 16.8805 14.065 16.8687 14.1299 16.8604C14.1947 16.8503 14.2313 16.8436 14.2313 16.8436C14.2313 16.8436 14.1931 16.8419 14.1282 16.8403C14.0633 16.8403 13.9686 16.8386 13.8571 16.8369Z" fill="#2964C2"/>
<path d="M9.46637 17.2857C9.56615 17.2807 9.68255 17.274 9.80561 17.2673C9.93033 17.2572 10.0617 17.2455 10.1947 17.2355C10.3261 17.2204 10.4575 17.2037 10.5822 17.1903C10.7052 17.1718 10.82 17.1551 10.9181 17.14C11.0162 17.1216 11.0977 17.1065 11.1559 17.0965C11.2124 17.0848 11.2457 17.0764 11.2457 17.0764C11.2457 17.0764 11.2124 17.0764 11.1542 17.0747C11.096 17.0764 11.0129 17.0781 10.9131 17.0797C10.8133 17.0848 10.6969 17.0915 10.5739 17.0982C10.4492 17.1082 10.3178 17.1199 10.1848 17.13C10.0534 17.145 9.92201 17.1618 9.79729 17.1769C9.67424 17.1953 9.5595 17.212 9.46138 17.2271C9.36327 17.2455 9.28179 17.2606 9.22359 17.2706C9.16705 17.2824 9.13379 17.2907 9.13379 17.2907C9.13379 17.2907 9.16705 17.2907 9.22525 17.2924C9.28345 17.2891 9.3666 17.2874 9.46637 17.2857Z" fill="#2964C2"/>
<path d="M21.0273 11.4682C21.0372 11.6223 21.0489 11.8416 21.0672 12.1046C21.0855 12.3675 21.1087 12.6756 21.1354 13.0038C21.1487 13.1679 21.1636 13.3388 21.1786 13.5112C21.1936 13.6837 21.2102 13.8596 21.2252 14.0337C21.2418 14.2096 21.2584 14.3837 21.275 14.5562C21.2933 14.7287 21.31 14.8978 21.3266 15.0619C21.3615 15.3902 21.3948 15.6966 21.4264 15.9579C21.4563 16.2208 21.4862 16.4385 21.5045 16.5909C21.5245 16.7433 21.5378 16.8303 21.5378 16.8303C21.5378 16.8303 21.5345 16.7416 21.5261 16.5892C21.5162 16.4351 21.5062 16.2158 21.4862 15.9528C21.4679 15.6899 21.4447 15.3818 21.418 15.0536C21.4047 14.8895 21.3898 14.7186 21.3748 14.5462C21.3598 14.3737 21.3432 14.1978 21.3283 14.0237C21.3116 13.8478 21.295 13.6737 21.2784 13.5012C21.2601 13.3287 21.2434 13.1596 21.2268 12.9955C21.1919 12.6672 21.1586 12.3608 21.127 12.0995C21.0971 11.8366 21.0672 11.6189 21.0489 11.4665C21.0289 11.3141 21.0156 11.2271 21.0156 11.2271C21.0156 11.2271 21.019 11.3158 21.0273 11.4682Z" fill="#2964C2"/>
<path d="M21.2554 12.6887C21.2704 12.893 21.287 13.1308 21.307 13.3837C21.3269 13.6382 21.3519 13.9095 21.3768 14.1808C21.4034 14.4521 21.4284 14.7234 21.455 14.9762C21.4816 15.2308 21.5099 15.4669 21.5315 15.6695C21.5531 15.8721 21.578 16.0413 21.5913 16.1602C21.608 16.2791 21.6163 16.3461 21.6163 16.3461C21.6163 16.3461 21.613 16.2774 21.6063 16.1585C21.598 16.0396 21.5897 15.8688 21.5747 15.6662C21.5598 15.4619 21.5431 15.2241 21.5232 14.9712C21.5032 14.7167 21.4783 14.4454 21.4533 14.1741C21.4267 13.9028 21.4018 13.6315 21.3752 13.3786C21.3486 13.1241 21.3203 12.888 21.2987 12.6853C21.2754 12.4827 21.2521 12.3136 21.2388 12.1947C21.2222 12.0758 21.2139 12.0088 21.2139 12.0088C21.2139 12.0088 21.2172 12.0774 21.2238 12.1963C21.2305 12.3152 21.2388 12.4861 21.2554 12.6887Z" fill="#2964C2"/>
<path d="M8.89902 12.0995C8.86743 12.3608 8.83417 12.6672 8.79925 12.9955C8.78262 13.1596 8.76599 13.3287 8.7477 13.5012C8.73107 13.6737 8.71444 13.8478 8.69781 14.0237C8.68284 14.1995 8.66621 14.3737 8.65125 14.5462C8.63628 14.7186 8.62298 14.8878 8.60801 15.0536C8.5814 15.3818 8.55812 15.6899 8.53983 15.9528C8.52154 16.2158 8.5099 16.4351 8.49992 16.5892C8.49161 16.7433 8.48828 16.8303 8.48828 16.8303C8.48828 16.8303 8.50158 16.7433 8.52154 16.5909C8.53983 16.4385 8.56976 16.2208 8.5997 15.9579C8.63129 15.6966 8.66455 15.3902 8.69947 15.0619C8.7161 14.8978 8.73273 14.7287 8.75102 14.5562C8.76765 14.3837 8.78428 14.2096 8.80091 14.0337C8.81588 13.8579 8.8325 13.6837 8.84747 13.5112C8.86244 13.3388 8.87574 13.1696 8.89071 13.0038C8.91731 12.6756 8.94059 12.3675 8.95889 12.1046C8.97718 11.8416 8.98882 11.6223 8.9988 11.4682C9.00711 11.3141 9.01044 11.2271 9.01044 11.2271C9.01044 11.2271 8.99713 11.3141 8.97718 11.4665C8.95889 11.6206 8.92895 11.8383 8.89902 12.0995Z" fill="#2964C2"/>
<path d="M8.56755 14.9782C8.59416 14.7236 8.62077 14.454 8.64571 14.1827C8.67065 13.9114 8.6956 13.6402 8.71555 13.3856C8.73717 13.1311 8.75214 12.8933 8.7671 12.6906C8.78207 12.4863 8.79038 12.3172 8.7987 12.1983C8.80535 12.0794 8.80868 12.0107 8.80868 12.0107C8.80868 12.0107 8.80036 12.0777 8.78373 12.1966C8.76877 12.3155 8.74548 12.483 8.72387 12.6873C8.70225 12.8899 8.67232 13.126 8.64737 13.3806C8.62077 13.6351 8.59416 13.9047 8.56922 14.176C8.54427 14.4473 8.51933 14.7186 8.49937 14.9732C8.47776 15.2277 8.46279 15.4655 8.44782 15.6681C8.43286 15.8724 8.42454 16.0416 8.41623 16.1605C8.40958 16.2794 8.40625 16.348 8.40625 16.348C8.40625 16.348 8.41456 16.281 8.43119 16.1621C8.44616 16.0432 8.46944 15.8758 8.49106 15.6715C8.51268 15.4672 8.54261 15.231 8.56755 14.9782Z" fill="#2964C2"/>
<path d="M14.6535 14.2934C14.6552 14.4575 14.6602 14.6149 14.6635 14.7656C14.6668 14.9163 14.6718 15.057 14.6768 15.1893C14.6951 15.7135 14.7217 16.0635 14.7217 16.0635C14.7217 16.0635 14.7483 15.7135 14.7666 15.1893C14.7716 15.0587 14.7766 14.9163 14.7799 14.7656C14.7832 14.6149 14.7882 14.4575 14.7899 14.2934C14.7916 14.1293 14.7965 13.9601 14.7965 13.7876C14.7982 13.6152 14.7982 13.441 14.7999 13.2668C14.7982 13.0927 14.7982 12.9168 14.7965 12.746C14.7965 12.5735 14.7916 12.4044 14.7899 12.2403C14.7849 11.9121 14.7766 11.6073 14.7666 11.3444C14.7483 10.8202 14.7217 10.4702 14.7217 10.4702C14.7217 10.4702 14.6951 10.8202 14.6768 11.3444C14.6668 11.6056 14.6585 11.9121 14.6535 12.2403C14.6519 12.4044 14.6469 12.5735 14.6469 12.746C14.6452 12.9185 14.6452 13.0927 14.6436 13.2668C14.6452 13.441 14.6452 13.6168 14.6469 13.7876C14.6469 13.9601 14.6519 14.1293 14.6535 14.2934Z" fill="#2964C2"/>
<path d="M14.4735 14.0604C14.4768 14.3133 14.4835 14.5511 14.4902 14.7537C14.4969 14.9563 14.5053 15.1255 14.5103 15.2444C14.5154 15.3633 14.5204 15.4303 14.5204 15.4303C14.5204 15.4303 14.5254 15.3633 14.5304 15.2444C14.5355 15.1255 14.5438 14.9563 14.5505 14.7537C14.5572 14.5511 14.5623 14.315 14.5673 14.0604C14.5689 13.9331 14.5706 13.8025 14.5723 13.6702C14.5723 13.5379 14.574 13.4023 14.574 13.2666C14.574 13.131 14.5723 12.997 14.5723 12.8631C14.5723 12.7308 14.5689 12.5985 14.5673 12.4729C14.5639 12.22 14.5572 11.9822 14.5505 11.7796C14.5438 11.5769 14.5355 11.4078 14.5304 11.2889C14.5254 11.17 14.5204 11.103 14.5204 11.103C14.5204 11.103 14.5154 11.17 14.5103 11.2889C14.5053 11.4078 14.4969 11.5769 14.4902 11.7796C14.4835 11.9822 14.4785 12.2183 14.4735 12.4729C14.4718 12.6001 14.4685 12.7308 14.4685 12.8631C14.4685 12.9954 14.4668 13.131 14.4668 13.2666C14.4668 13.4023 14.4685 13.5363 14.4685 13.6702C14.4701 13.8025 14.4718 13.9331 14.4735 14.0604Z" fill="#2964C2"/>
<path d="M9.49762 11.103C9.49762 11.103 9.49097 11.17 9.48099 11.2889C9.47101 11.4078 9.45604 11.5753 9.44108 11.7779C9.42611 11.9805 9.40616 12.2167 9.38953 12.4695C9.3729 12.7224 9.35461 12.9937 9.33631 13.2633C9.32135 13.5346 9.30472 13.8042 9.28975 14.0571C9.27479 14.3099 9.26481 14.5477 9.25483 14.7504C9.24652 14.953 9.2382 15.1221 9.23321 15.241C9.22989 15.3599 9.22656 15.4269 9.22656 15.4269C9.22656 15.4269 9.23321 15.3599 9.24319 15.241C9.25317 15.1221 9.26647 14.9547 9.2831 14.752C9.29807 14.5494 9.31802 14.3133 9.33465 14.0604C9.35128 13.8075 9.36957 13.5363 9.38787 13.2666C9.40283 12.9954 9.41946 12.7257 9.43443 12.4729C9.44939 12.22 9.45937 11.9822 9.46935 11.7796C9.47933 11.5769 9.48431 11.4078 9.49097 11.2889C9.49429 11.17 9.49762 11.103 9.49762 11.103Z" fill="#2964C2"/>
<path d="M15.245 14.2932C15.2483 14.6214 15.255 14.9262 15.2617 15.1891C15.2684 15.4503 15.2768 15.6697 15.2818 15.8221C15.2868 15.9745 15.2919 16.0616 15.2919 16.0616C15.2919 16.0616 15.2969 15.9745 15.3019 15.8221C15.3069 15.6697 15.3153 15.4503 15.322 15.1891C15.3287 14.9279 15.3337 14.6214 15.3388 14.2932C15.3404 14.1291 15.3421 13.9599 15.3438 13.7874C15.3438 13.615 15.3455 13.4408 15.3455 13.2666C15.3455 13.0925 15.3438 12.9166 15.3438 12.7458C15.3421 12.5733 15.3404 12.4042 15.3388 12.2401C15.3354 11.9119 15.3287 11.6071 15.322 11.3442C15.3153 11.0829 15.3069 10.8635 15.3019 10.7112C15.2969 10.5588 15.2919 10.4717 15.2919 10.4717C15.2919 10.4717 15.2868 10.5588 15.2818 10.7112C15.2768 10.8635 15.2684 11.0829 15.2617 11.3442C15.255 11.6054 15.25 11.9119 15.245 12.2401C15.2433 12.4042 15.2416 12.5733 15.24 12.7458C15.24 12.9183 15.2383 13.0925 15.2383 13.2666C15.2383 13.4408 15.24 13.6166 15.24 13.7874C15.2416 13.9599 15.2433 14.1291 15.245 14.2932Z" fill="#2964C2"/>
<path d="M15.4648 14.8306C15.4682 15.0432 15.4715 15.2224 15.4749 15.3464C15.4782 15.4703 15.4799 15.5423 15.4799 15.5423C15.4799 15.5423 15.4816 15.472 15.4849 15.3464C15.4866 15.2224 15.49 15.0432 15.495 14.8306C15.4967 14.6179 15.5017 14.3684 15.5034 14.1004C15.505 13.8342 15.505 13.5495 15.5067 13.2648C15.505 12.9801 15.505 12.6954 15.5034 12.4292C15.5017 12.1629 15.4967 11.9134 15.495 11.699C15.4916 11.4863 15.4883 11.3072 15.4849 11.1832C15.4816 11.0593 15.4799 10.9873 15.4799 10.9873C15.4799 10.9873 15.4782 11.0576 15.4749 11.1832C15.4732 11.3072 15.4699 11.4863 15.4648 11.699C15.4632 11.9117 15.4581 12.1612 15.4565 12.4292C15.4548 12.6954 15.4548 12.9801 15.4531 13.2648C15.4548 13.5495 15.4548 13.8342 15.4565 14.1004C15.4581 14.3684 15.4632 14.6179 15.4648 14.8306Z" fill="#2964C2"/>
<path d="M9.7209 11.5238C9.70428 11.7616 9.68266 12.0379 9.66437 12.3343C9.64607 12.6307 9.62612 12.9473 9.60616 13.2638C9.58787 13.5803 9.57124 13.8968 9.55461 14.1948C9.53965 14.4913 9.52634 14.7692 9.5147 15.007C9.50473 15.2448 9.49641 15.4424 9.48976 15.5814C9.48477 15.7204 9.48145 15.7991 9.48145 15.7991C9.48145 15.7991 9.4881 15.7204 9.49974 15.5814C9.50971 15.4424 9.52468 15.2448 9.54297 15.0087C9.5596 14.7709 9.57789 14.4946 9.59951 14.1982C9.6178 13.9018 9.63776 13.5853 9.65771 13.2688C9.67601 12.9523 9.69264 12.6358 9.70926 12.3377C9.72589 12.0413 9.73753 11.7633 9.74917 11.5255C9.75915 11.2877 9.76747 11.0901 9.77412 10.9511C9.77911 10.8121 9.78243 10.7334 9.78243 10.7334C9.78243 10.7334 9.77578 10.8121 9.76414 10.9511C9.75416 11.0901 9.7392 11.2877 9.7209 11.5238Z" fill="#2964C2"/>
<path d="M20.5777 14.7518C20.5678 14.5492 20.5578 14.3114 20.5428 14.0585C20.5279 13.8057 20.5129 13.5344 20.4963 13.2648C20.478 12.9951 20.4597 12.7239 20.4431 12.471C20.4264 12.2181 20.4065 11.982 20.3915 11.7794C20.3765 11.5767 20.3616 11.4076 20.3516 11.2904C20.3416 11.1715 20.335 11.1045 20.335 11.1045C20.335 11.1045 20.3366 11.1715 20.3416 11.2904C20.3466 11.4093 20.3516 11.5784 20.3632 11.781C20.3732 11.9837 20.3832 12.2215 20.3982 12.4743C20.4131 12.7272 20.4281 12.9985 20.4447 13.2681C20.463 13.5377 20.4813 13.809 20.4979 14.0619C20.5146 14.3147 20.5345 14.5509 20.5495 14.7535C20.5661 14.9561 20.5794 15.1253 20.5894 15.2425C20.5994 15.3614 20.606 15.4284 20.606 15.4284C20.606 15.4284 20.6044 15.3614 20.5994 15.2425C20.5944 15.1236 20.5861 14.9545 20.5777 14.7518Z" fill="#2964C2"/>
<path d="M20.085 11.5255C20.0967 11.7633 20.1083 12.0396 20.1249 12.3377C20.1416 12.6341 20.1598 12.9506 20.1765 13.2688C20.1964 13.5853 20.2164 13.9018 20.2347 14.1982C20.2546 14.4946 20.2746 14.7709 20.2912 15.0087C20.3095 15.2465 20.3245 15.4441 20.3345 15.5814C20.3461 15.7204 20.3527 15.7991 20.3527 15.7991C20.3527 15.7991 20.3494 15.7204 20.3444 15.5814C20.3378 15.4424 20.3295 15.2448 20.3195 15.007C20.3078 14.7692 20.2945 14.4929 20.2796 14.1948C20.2629 13.8984 20.2447 13.5819 20.228 13.2638C20.2081 12.9473 20.1881 12.6307 20.1698 12.3343C20.1515 12.0379 20.1299 11.7616 20.1133 11.5238C20.095 11.286 20.08 11.0884 20.07 10.9511C20.0584 10.8121 20.0518 10.7334 20.0518 10.7334C20.0518 10.7334 20.0551 10.8121 20.0601 10.9511C20.0651 11.0901 20.075 11.2877 20.085 11.5255Z" fill="#2964C2"/>
</svg>
