<svg width="13" height="12" viewBox="0 0 13 12" fill="none" xmlns="http://www.w3.org/2000/svg">
<path d="M5.49999 5.84615C5.01875 5.84615 4.60677 5.6748 4.26406 5.3321C3.92135 4.9894 3.75 4.57742 3.75 4.09618C3.75 3.61493 3.92135 3.20295 4.26406 2.86025C4.60677 2.51755 5.01875 2.34619 5.49999 2.34619C5.98123 2.34619 6.3932 2.51755 6.73591 2.86025C7.07862 3.20295 7.24998 3.61493 7.24998 4.09618C7.24998 4.57742 7.07862 4.9894 6.73591 5.3321C6.3932 5.6748 5.98123 5.84615 5.49999 5.84615ZM1.75 9.65384V8.54232C1.75 8.28976 1.81442 8.06108 1.94327 7.85627C2.07212 7.65147 2.25192 7.49298 2.48269 7.38079C2.89808 7.17374 3.3468 7.00083 3.82884 6.86204C4.31089 6.72327 4.86794 6.65388 5.49999 6.65388H5.64614C5.68652 6.65388 5.73011 6.659 5.77691 6.66925C5.72627 6.7872 5.68444 6.9074 5.65142 7.02983C5.61842 7.15226 5.59102 7.27694 5.56923 7.40385H5.49999C4.92435 7.40385 4.41473 7.47004 3.97115 7.60242C3.52756 7.73478 3.14615 7.88398 2.82691 8.05C2.71345 8.1109 2.6306 8.18206 2.57835 8.26347C2.52611 8.34488 2.49999 8.43783 2.49999 8.54232V8.90385H5.64999C5.68716 9.03077 5.7354 9.15961 5.7947 9.29038C5.85399 9.42115 5.91921 9.5423 5.99036 9.65384H1.75ZM8.55288 10.024L8.44134 9.36057C8.3221 9.32531 8.20993 9.27915 8.1048 9.2221C7.99967 9.16505 7.89967 9.09358 7.8048 9.00768L7.17115 9.22787L6.81539 8.62308L7.33269 8.2C7.2968 8.07052 7.27885 7.94296 7.27885 7.81732C7.27885 7.69167 7.2968 7.5641 7.33269 7.43462L6.8202 7.00193L7.17596 6.39714L7.8048 6.62214C7.89647 6.53624 7.99567 6.46557 8.1024 6.41012C8.20913 6.35467 8.3221 6.30931 8.44134 6.27405L8.55288 5.6106H9.26439L9.37113 6.27405C9.49036 6.30931 9.60334 6.35595 9.71006 6.41397C9.8168 6.47198 9.916 6.54649 10.0077 6.63752L10.6365 6.39714L10.9923 7.01732L10.4798 7.45C10.5157 7.57025 10.5336 7.6955 10.5336 7.82577C10.5336 7.95603 10.5157 8.08077 10.4798 8.2L10.9971 8.62308L10.6413 9.22787L10.0077 9.00768C9.9128 9.09358 9.8128 9.16505 9.70766 9.2221C9.60254 9.27915 9.49036 9.32531 9.37113 9.36057L9.26439 10.024H8.55288ZM8.90425 8.76923C9.16615 8.76923 9.39021 8.67598 9.57643 8.48948C9.76264 8.30298 9.85575 8.07878 9.85575 7.81689C9.85575 7.55499 9.7625 7.33093 9.576 7.14472C9.3895 6.9585 9.1653 6.86539 8.9034 6.86539C8.64151 6.86539 8.41745 6.95864 8.23124 7.14514C8.04502 7.33164 7.95191 7.55584 7.95191 7.81774C7.95191 8.07963 8.04516 8.30369 8.23166 8.4899C8.41816 8.67612 8.64236 8.76923 8.90425 8.76923ZM5.49999 5.09618C5.77499 5.09618 6.0104 4.99826 6.20624 4.80243C6.40207 4.6066 6.49999 4.37118 6.49999 4.09618C6.49999 3.82118 6.40207 3.58576 6.20624 3.38993C6.0104 3.1941 5.77499 3.09618 5.49999 3.09618C5.22499 3.09618 4.98957 3.1941 4.79374 3.38993C4.5979 3.58576 4.49999 3.82118 4.49999 4.09618C4.49999 4.37118 4.5979 4.6066 4.79374 4.80243C4.98957 4.99826 5.22499 5.09618 5.49999 5.09618Z" fill="white"/>
</svg>
