<svg width="28" height="28" viewBox="0 0 28 28" fill="none" xmlns="http://www.w3.org/2000/svg">
<path d="M11.4333 15.7363L12.398 12.5684L9.86058 10.612H13.0173L14 7.45752L14.9827 10.612H18.1394L15.5839 12.5684L16.5487 15.7363L14 13.7665L11.4333 15.7363ZM7.58333 25.9356V17.585C6.84444 16.8132 6.27083 15.9211 5.8625 14.9085C5.45417 13.8959 5.25 12.8152 5.25 11.6665C5.25 9.22546 6.09808 7.15688 7.79424 5.46074C9.49038 3.76458 11.559 2.9165 14 2.9165C16.441 2.9165 18.5096 3.76458 20.2057 5.46074C21.9019 7.15688 22.7499 9.22546 22.7499 11.6665C22.7499 12.8152 22.5458 13.8959 22.1374 14.9085C21.7291 15.9211 21.1555 16.8132 20.4166 17.585V25.9356L14 23.894L7.58333 25.9357V25.9356ZM14 18.6665C15.9444 18.6665 17.5972 17.9859 18.9583 16.6248C20.3194 15.2637 21 13.6109 21 11.6665C21 9.72203 20.3194 8.06925 18.9583 6.70814C17.5972 5.34703 15.9444 4.66648 14 4.66648C12.0555 4.66648 10.4027 5.34703 9.04164 6.70814C7.68053 8.06925 6.99997 9.72203 6.99997 11.6665C6.99997 13.6109 7.68053 15.2637 9.04164 16.6248C10.4027 17.9859 12.0555 18.6665 14 18.6665ZM9.3333 23.3735L14 22.1216L18.6666 23.3735V19.0388C18.001 19.4726 17.2726 19.8107 16.4814 20.053C15.6902 20.2953 14.863 20.4164 14 20.4164C13.1369 20.4164 12.3098 20.2953 11.5186 20.053C10.7273 19.8107 9.99891 19.4726 9.3333 19.0388V23.3735Z" fill="white"/>
</svg>
