<svg width="28" height="28" viewBox="0 0 28 28" fill="none" xmlns="http://www.w3.org/2000/svg">
<path d="M9.625 20.7081H18.3749V18.9582H9.625V20.7081ZM9.625 16.0414H18.3749V14.2915H9.625V16.0414ZM7.35898 25.0831C6.76966 25.0831 6.27083 24.8789 5.8625 24.4706C5.45417 24.0623 5.25 23.5635 5.25 22.9741V5.02549C5.25 4.43617 5.45417 3.93734 5.8625 3.529C6.27083 3.12067 6.76966 2.9165 7.35898 2.9165H16.625L22.7499 9.04145V22.9741C22.7499 23.5635 22.5458 24.0623 22.1374 24.4706C21.7291 24.8789 21.2303 25.0831 20.641 25.0831H7.35898ZM15.75 9.91645V4.66648H7.35898C7.26923 4.66648 7.18695 4.70387 7.11215 4.77865C7.03736 4.85345 6.99997 4.93573 6.99997 5.02549V22.9741C6.99997 23.0639 7.03736 23.1462 7.11215 23.221C7.18695 23.2958 7.26923 23.3331 7.35898 23.3331H20.641C20.7307 23.3331 20.813 23.2958 20.8878 23.221C20.9626 23.1462 21 23.0639 21 22.9741V9.91645H15.75Z" fill="white"/>
</svg>
