<svg width="28" height="28" viewBox="0 0 28 28" fill="none" xmlns="http://www.w3.org/2000/svg">
<g clip-path="url(#clip0_1_264)">
<path d="M11.667 13.6412C10.5441 13.6412 9.58279 13.2414 8.78314 12.4417C7.98349 11.6421 7.58366 10.6808 7.58366 9.55791C7.58366 8.435 7.98349 7.47372 8.78314 6.67409C9.58279 5.87444 10.5441 5.47461 11.667 5.47461C12.7899 5.47461 13.7511 5.87444 14.5508 6.67409C15.3504 7.47372 15.7503 8.435 15.7503 9.55791C15.7503 10.6808 15.3504 11.6421 14.5508 12.4417C13.7511 13.2414 12.7899 13.6412 11.667 13.6412ZM2.91699 22.5258V19.9322C2.91699 19.3429 3.06732 18.8093 3.36797 18.3315C3.6686 17.8536 4.08814 17.4838 4.6266 17.222C5.59584 16.7389 6.64285 16.3354 7.76761 16.0116C8.8924 15.6878 10.1922 15.5259 11.667 15.5259H12.008C12.1022 15.5259 12.2039 15.5378 12.3131 15.5618C12.195 15.837 12.0974 16.1174 12.0203 16.4031C11.9433 16.6888 11.8794 16.9797 11.8285 17.2758H11.667C10.3238 17.2758 9.1347 17.4303 8.09968 17.7391C7.06463 18.048 6.17467 18.3961 5.42979 18.7835C5.16505 18.9256 4.97173 19.0916 4.84981 19.2816C4.72791 19.4716 4.66696 19.6884 4.66696 19.9322V20.7758H12.017C12.1037 21.072 12.2163 21.3726 12.3546 21.6777C12.493 21.9828 12.6452 22.2655 12.8112 22.5258H2.91699ZM18.7904 23.3895L18.5301 21.8415C18.2519 21.7592 17.9902 21.6515 17.7449 21.5184C17.4995 21.3853 17.2662 21.2185 17.0449 21.0181L15.5663 21.5319L14.7362 20.1207L15.9433 19.1335C15.8595 18.8314 15.8176 18.5337 15.8176 18.2406C15.8176 17.9474 15.8595 17.6497 15.9433 17.3476L14.7475 16.338L15.5776 14.9268L17.0449 15.4518C17.2587 15.2514 17.4902 15.0865 17.7393 14.9571C17.9883 14.8277 18.2519 14.7219 18.5301 14.6396L18.7904 13.0916H20.4506L20.6996 14.6396C20.9778 14.7219 21.2414 14.8307 21.4905 14.9661C21.7395 15.1014 21.971 15.2753 22.1849 15.4877L23.6522 14.9268L24.4823 16.3739L23.2864 17.3835C23.3702 17.6641 23.4121 17.9563 23.4121 18.2603C23.4121 18.5642 23.3702 18.8553 23.2864 19.1335L24.4935 20.1207L23.6634 21.5319L22.1849 21.0181C21.9635 21.2185 21.7302 21.3853 21.4849 21.5184C21.2396 21.6515 20.9778 21.7592 20.6996 21.8415L20.4506 23.3895H18.7904ZM19.6102 20.4617C20.2213 20.4617 20.7441 20.2441 21.1787 19.8089C21.6132 19.3738 21.8304 18.8507 21.8304 18.2396C21.8304 17.6285 21.6128 17.1057 21.1777 16.6712C20.7425 16.2367 20.2194 16.0194 19.6083 16.0194C18.9972 16.0194 18.4744 16.237 18.0399 16.6722C17.6054 17.1073 17.3881 17.6305 17.3881 18.2416C17.3881 18.8526 17.6057 19.3754 18.0409 19.8099C18.476 20.2444 18.9992 20.4617 19.6102 20.4617ZM11.667 11.8912C12.3086 11.8912 12.8579 11.6628 13.3149 11.2058C13.7718 10.7489 14.0003 10.1996 14.0003 9.55791C14.0003 8.91625 13.7718 8.36694 13.3149 7.91C12.8579 7.45305 12.3086 7.22458 11.667 7.22458C11.0253 7.22458 10.476 7.45305 10.019 7.91C9.5621 8.36694 9.33363 8.91625 9.33363 9.55791C9.33363 10.1996 9.5621 10.7489 10.019 11.2058C10.476 11.6628 11.0253 11.8912 11.667 11.8912Z" fill="white"/>
</g>
<defs>
<clipPath id="clip0_1_264">
<rect width="28" height="28" fill="white"/>
</clipPath>
</defs>
</svg>
