<svg width="28" height="28" viewBox="0 0 28 28" fill="none" xmlns="http://www.w3.org/2000/svg">
<path d="M8.39062 2.66992H19.6085V11.3795C19.6085 11.8118 19.5038 12.2048 19.2944 12.5585C19.085 12.9123 18.7979 13.1998 18.4329 13.4212L14.4034 15.8263L15.2425 18.5545H19.1373L15.947 20.8071L17.1899 24.7243L13.9996 22.2968L10.8092 24.7243L12.0521 20.8071L8.86181 18.5545H12.7566L13.5957 15.8263L9.54382 13.4436C9.17886 13.2297 8.89543 12.9422 8.69352 12.581C8.49159 12.2197 8.39062 11.8193 8.39062 11.3795V2.66992ZM10.1406 4.41989V11.3795C10.1406 11.4917 10.1686 11.5945 10.2247 11.688C10.2808 11.7815 10.3575 11.8582 10.4547 11.918L13.1246 13.4975V4.41989H10.1406ZM17.8586 4.41989H14.8745V13.4975L17.5445 11.918C17.6417 11.8582 17.7183 11.7815 17.7744 11.688C17.8305 11.5945 17.8586 11.4917 17.8586 11.3795V4.41989Z" fill="white"/>
</svg>
