<svg width="556" height="101" viewBox="0 0 556 101" fill="none" xmlns="http://www.w3.org/2000/svg">
<path d="M61.89 93.832C60.098 93.832 58.7327 90.8027 57.794 84.744C56.9407 78.6853 56.1727 70.4507 55.49 60.04C53.3567 60.3813 49.73 61.1493 44.61 62.344C39.49 63.4533 34.754 64.5627 30.402 65.672C15.042 69.512 6.38067 71.432 4.418 71.432C3.82067 71.432 2.96733 70.9627 1.858 70.024C0.834 69.0853 0.322 68.1893 0.322 67.336C0.322 66.3973 0.876667 65.416 1.986 64.392C3.43667 63.112 7.14867 59.2293 13.122 52.744C18.3273 46.9413 23.106 41.864 27.458 37.512C31.8953 33.0747 38.722 25.096 47.938 13.576C51.01 9.73599 52.9727 7.34666 53.826 6.408C55.0207 5.04266 55.874 3.89066 56.386 2.952C56.898 1.92799 57.282 1.24533 57.538 0.903999C57.794 0.562665 58.2207 0.391998 58.818 0.391998C59.842 0.391998 60.9513 0.903997 62.146 1.92799C63.3407 2.952 63.938 4.01866 63.938 5.128C63.938 5.384 63.682 5.93866 63.17 6.792C62.5727 7.98667 62.2313 9.39467 62.146 11.016C61.9753 13.832 61.89 25.5227 61.89 46.088C61.89 49.5867 61.9327 52.104 62.018 53.64L64.578 53.128C69.698 52.104 73.922 51.3787 77.25 50.952C77.9327 50.8667 78.4873 50.312 78.914 49.288C79.426 48.264 79.938 47.752 80.45 47.752C81.3887 47.752 82.3273 48.3067 83.266 49.416C84.29 50.44 84.802 51.5067 84.802 52.616C84.802 54.0667 84.2047 55.0907 83.01 55.688C81.8153 56.2 79.554 56.6267 76.226 56.968L66.242 58.12L62.402 58.632C62.9993 67.4213 64.1513 75.8267 65.858 83.848C66.4553 87.176 66.754 89.224 66.754 89.992C66.754 90.9307 66.242 91.784 65.218 92.552C64.2793 93.4053 63.17 93.832 61.89 93.832ZM31.682 40.712C23.8313 49.16 16.8767 56.7973 10.818 63.624L19.522 61.704C24.2153 60.8507 27.4153 60.2107 29.122 59.784C34.242 58.5893 40.2153 57.352 47.042 56.072L55.106 54.408C54.85 51.08 54.722 48.4773 54.722 46.6C54.722 40.968 54.7647 34.696 54.85 27.784C55.0207 20.872 55.1487 16.52 55.234 14.728C53.698 16.4347 50.6687 19.8053 46.146 24.84C41.7087 29.7893 36.8873 35.08 31.682 40.712ZM112.481 95.624C106.337 95.624 101.601 93.32 98.273 88.712C94.945 84.104 93.281 78.1307 93.281 70.792C93.281 62.0027 94.3477 53.128 96.481 44.168C98.6997 35.1227 101.644 26.9733 105.313 19.72C104.63 19.72 103.99 19.464 103.393 18.952C102.796 18.44 102.497 17.8 102.497 17.032C102.497 15.9227 103.137 14.8987 104.417 13.96C105.782 13.0213 107.361 12.3387 109.153 11.912C109.324 11.7413 109.622 11.4 110.049 10.888C110.476 10.2907 111.073 9.992 111.841 9.992C112.694 9.992 113.505 10.1627 114.273 10.504C115.041 10.76 115.51 11.0587 115.681 11.4C118.07 10.9733 120.502 10.76 122.977 10.76C128.78 10.76 133.985 12.3387 138.593 15.496C143.201 18.6533 146.828 23.048 149.473 28.68C152.118 34.2267 153.441 40.456 153.441 47.368C153.441 54.8773 151.478 62.3867 147.553 69.896C143.713 77.4053 138.593 83.5493 132.193 88.328C125.878 93.192 119.308 95.624 112.481 95.624ZM123.489 18.568C121.526 18.568 118.924 18.824 115.681 19.336L112.993 19.72C109.068 26.7173 105.996 34.952 103.777 44.424C101.644 53.896 100.577 62.6427 100.577 70.664C100.577 76.04 101.601 80.4773 103.649 83.976C105.782 87.3893 109.11 89.096 113.633 89.096C118.838 89.096 124.086 86.92 129.377 82.568C134.668 78.1307 139.02 72.6693 142.433 66.184C145.846 59.6987 147.553 53.512 147.553 47.624C147.553 42.4187 146.401 37.5973 144.097 33.16C141.878 28.6373 138.892 25.096 135.137 22.536C131.468 19.8907 127.585 18.568 123.489 18.568ZM187.803 100.488C186.267 100.488 185.158 100.104 184.475 99.336C183.878 98.568 183.579 97.672 183.579 96.648C183.579 94.9413 185.371 93.832 188.955 93.32C200.646 91.6133 210.374 88.2427 218.139 83.208C225.99 78.088 229.915 71.2187 229.915 62.6C229.915 52.872 224.155 48.008 212.635 48.008C208.966 48.008 205.467 48.3067 202.139 48.904C198.896 49.416 194.928 50.2267 190.235 51.336C185.542 53.9813 182.427 55.6453 180.891 56.328C179.355 57.0107 177.947 57.352 176.667 57.352C175.899 57.352 175.216 56.968 174.619 56.2C174.022 55.3467 173.723 54.408 173.723 53.384C173.723 51.848 174.448 50.7387 175.899 50.056C178.544 48.8613 180.763 47.9653 182.555 47.368C185.371 46.4293 188.187 45.2347 191.003 43.784C198.342 39.944 204.23 35.976 208.667 31.88C213.104 27.784 215.323 23.5173 215.323 19.08C215.323 15.3253 214.043 12.7653 211.483 11.4C209.008 9.94933 205.51 9.224 200.987 9.224C194.075 9.224 187.462 11.1867 181.147 15.112C179.355 16.2213 177.819 17.4587 176.539 18.824C175.259 20.104 174.406 21.1707 173.979 22.024C173.211 23.1333 172.187 23.688 170.907 23.688C168.262 23.688 166.939 22.536 166.939 20.232C166.939 18.696 168.646 16.4773 172.059 13.576C175.472 10.5893 179.91 7.98666 185.371 5.768C190.918 3.54933 196.806 2.43999 203.035 2.43999C209.094 2.43999 213.787 3.76266 217.115 6.408C220.528 8.96799 222.235 12.7653 222.235 17.8C222.235 21.9813 220.016 26.5467 215.579 31.496C211.227 36.36 206.32 40.456 200.859 43.784L201.371 43.912C204.102 43.2293 206.278 42.76 207.899 42.504C209.52 42.248 211.824 42.12 214.811 42.12C221.126 42.12 226.331 43.8693 230.427 47.368C234.608 50.8667 236.699 55.7307 236.699 61.96C236.699 71.6027 232.816 79.496 225.051 85.64C217.371 91.8693 206.704 96.6053 193.051 99.848C190.918 100.275 189.168 100.488 187.803 100.488ZM340.433 54.28C340.433 55.816 339.281 59.1867 336.977 64.392C334.758 69.5973 331.345 74.4187 326.737 78.856C322.214 83.2933 316.625 85.512 309.969 85.512C304.508 85.512 299.942 83.8053 296.273 80.392C292.604 76.9787 290.769 71.7307 290.769 64.648C290.769 57.992 292.305 51.4213 295.377 44.936C298.449 38.3653 302.46 33.032 307.409 28.936C312.358 24.7547 317.478 22.664 322.769 22.664C325.926 22.664 328.572 23.3893 330.705 24.84C332.924 26.2053 334.033 28.2107 334.033 30.856C334.033 33.8427 332.326 36.744 328.913 39.56C325.585 42.376 321.233 44.8507 315.857 46.984C310.481 49.1173 304.934 50.6533 299.217 51.592C298.193 55.5173 297.681 59.3573 297.681 63.112C297.681 68.0613 298.833 71.9013 301.137 74.632C303.526 77.3627 306.897 78.728 311.249 78.728C317.82 78.728 323.153 76.3813 327.249 71.688C331.345 66.9947 334.758 61.704 337.489 55.816C337.66 55.4747 337.958 54.8347 338.385 53.896C338.812 52.872 339.196 52.36 339.537 52.36C340.134 52.36 340.433 53 340.433 54.28ZM321.233 27.912C317.99 27.912 314.876 28.9787 311.889 31.112C308.902 33.2453 306.385 35.8053 304.337 38.792C302.374 41.7787 301.094 44.424 300.497 46.728C304.422 46.3013 308.561 45.192 312.913 43.4C317.265 41.608 320.892 39.6453 323.793 37.512C326.78 35.3787 328.273 33.6293 328.273 32.264C328.273 30.8987 327.548 29.832 326.097 29.064C324.732 28.296 323.11 27.912 321.233 27.912ZM390.08 35.208C389.483 35.208 388.885 34.952 388.288 34.44C387.776 33.928 387.179 33.2027 386.496 32.264C385.899 31.4107 385.088 30.6853 384.064 30.088C383.125 29.4907 382.144 29.192 381.12 29.192C378.645 29.192 375.317 32.4773 371.136 39.048C366.955 45.5333 362.859 53.7253 358.848 63.624C358.933 65.5867 359.061 68.0613 359.232 71.048C359.488 74.0347 359.659 76.2533 359.744 77.704L360.128 82.824C360.128 84.0187 359.872 85.0427 359.36 85.896C358.848 86.8347 357.909 87.304 356.544 87.304C355.093 87.304 354.155 85.384 353.728 81.544C353.301 77.6187 353.045 71.944 352.96 64.52C352.875 62.6427 352.789 59.9547 352.704 56.456C352.704 52.9573 352.619 48.776 352.448 43.912C352.192 36.5733 352.064 31.3253 352.064 28.168C352.064 26.2053 353.259 25.224 355.648 25.224C357.099 25.224 357.952 25.864 358.208 27.144C358.549 28.3387 358.72 30.6853 358.72 34.184V54.536C361.28 47.9653 364.053 42.2907 367.04 37.512C370.027 32.7333 372.928 29.1067 375.744 26.632C378.645 24.072 381.205 22.792 383.424 22.792C385.301 22.792 387.093 23.2187 388.8 24.072C390.507 24.9253 391.872 26.0347 392.896 27.4C393.92 28.68 394.432 29.9173 394.432 31.112C394.432 31.88 393.877 32.776 392.768 33.8C391.744 34.7387 390.848 35.208 390.08 35.208ZM443.08 35.208C442.483 35.208 441.885 34.952 441.288 34.44C440.776 33.928 440.179 33.2027 439.496 32.264C438.899 31.4107 438.088 30.6853 437.064 30.088C436.125 29.4907 435.144 29.192 434.12 29.192C431.645 29.192 428.317 32.4773 424.136 39.048C419.955 45.5333 415.859 53.7253 411.848 63.624C411.933 65.5867 412.061 68.0613 412.232 71.048C412.488 74.0347 412.659 76.2533 412.744 77.704L413.128 82.824C413.128 84.0187 412.872 85.0427 412.36 85.896C411.848 86.8347 410.909 87.304 409.544 87.304C408.093 87.304 407.155 85.384 406.728 81.544C406.301 77.6187 406.045 71.944 405.96 64.52C405.875 62.6427 405.789 59.9547 405.704 56.456C405.704 52.9573 405.619 48.776 405.448 43.912C405.192 36.5733 405.064 31.3253 405.064 28.168C405.064 26.2053 406.259 25.224 408.648 25.224C410.099 25.224 410.952 25.864 411.208 27.144C411.549 28.3387 411.72 30.6853 411.72 34.184V54.536C414.28 47.9653 417.053 42.2907 420.04 37.512C423.027 32.7333 425.928 29.1067 428.744 26.632C431.645 24.072 434.205 22.792 436.424 22.792C438.301 22.792 440.093 23.2187 441.8 24.072C443.507 24.9253 444.872 26.0347 445.896 27.4C446.92 28.68 447.432 29.9173 447.432 31.112C447.432 31.88 446.877 32.776 445.768 33.8C444.744 34.7387 443.848 35.208 443.08 35.208ZM471.248 85.896C465.531 85.896 461.307 84.3173 458.576 81.16C455.845 78.0027 454.48 74.0773 454.48 69.384C454.48 65.288 455.205 60.2107 456.656 54.152C458.192 48.0933 460.325 42.6747 463.056 37.896C463.227 37.5547 463.909 36.3173 465.104 34.184C466.384 31.9653 467.792 30.3013 469.328 29.192C470.864 27.9973 472.485 27.4 474.192 27.4C474.96 27.4 475.643 27.6133 476.24 28.04C476.923 28.3813 477.264 28.8507 477.264 29.448C477.264 29.6187 477.008 30.0453 476.496 30.728C476.069 31.3253 475.728 31.7947 475.472 32.136C472.571 35.6347 470.224 39.0907 468.432 42.504C466.043 46.856 464.165 51.1653 462.8 55.432C461.52 59.6987 460.88 64.3493 460.88 69.384C460.88 76.1253 464.976 79.496 473.168 79.496C477.008 79.496 480.549 78.3867 483.792 76.168C487.12 73.9493 489.765 71.2613 491.728 68.104C493.691 64.8613 494.672 61.9173 494.672 59.272C494.672 56.2853 493.691 53.6827 491.728 51.464C489.765 49.2453 487.077 46.8987 483.664 44.424C481.445 42.8027 479.824 41.48 478.8 40.456C477.776 39.432 477.264 38.5787 477.264 37.896C477.264 36.872 477.989 36.0613 479.44 35.464C480.891 34.7813 482.597 34.44 484.56 34.44C485.669 34.44 486.395 34.5253 486.736 34.696C487.077 34.7813 487.248 34.9947 487.248 35.336C487.248 35.5067 487.077 35.8053 486.736 36.232C486.48 36.5733 486.352 36.872 486.352 37.128C486.352 37.384 487.205 38.2373 488.912 39.688C492.325 42.504 495.184 45.3627 497.488 48.264C499.792 51.1653 500.944 54.5787 500.944 58.504C500.944 61.832 499.707 65.672 497.232 70.024C494.757 74.376 491.259 78.1307 486.736 81.288C482.213 84.36 477.051 85.896 471.248 85.896ZM550.83 35.208C550.233 35.208 549.635 34.952 549.038 34.44C548.526 33.928 547.929 33.2027 547.246 32.264C546.649 31.4107 545.838 30.6853 544.814 30.088C543.875 29.4907 542.894 29.192 541.87 29.192C539.395 29.192 536.067 32.4773 531.886 39.048C527.705 45.5333 523.609 53.7253 519.598 63.624C519.683 65.5867 519.811 68.0613 519.982 71.048C520.238 74.0347 520.409 76.2533 520.494 77.704L520.878 82.824C520.878 84.0187 520.622 85.0427 520.11 85.896C519.598 86.8347 518.659 87.304 517.294 87.304C515.843 87.304 514.905 85.384 514.478 81.544C514.051 77.6187 513.795 71.944 513.71 64.52C513.625 62.6427 513.539 59.9547 513.454 56.456C513.454 52.9573 513.369 48.776 513.198 43.912C512.942 36.5733 512.814 31.3253 512.814 28.168C512.814 26.2053 514.009 25.224 516.398 25.224C517.849 25.224 518.702 25.864 518.958 27.144C519.299 28.3387 519.47 30.6853 519.47 34.184V54.536C522.03 47.9653 524.803 42.2907 527.79 37.512C530.777 32.7333 533.678 29.1067 536.494 26.632C539.395 24.072 541.955 22.792 544.174 22.792C546.051 22.792 547.843 23.2187 549.55 24.072C551.257 24.9253 552.622 26.0347 553.646 27.4C554.67 28.68 555.182 29.9173 555.182 31.112C555.182 31.88 554.627 32.776 553.518 33.8C552.494 34.7387 551.598 35.208 550.83 35.208Z" fill="#2A4E96"/>
</svg>
