<svg width="556" height="96" viewBox="0 0 556 96" fill="none" xmlns="http://www.w3.org/2000/svg">
<path d="M61.7025 93.832C59.9105 93.832 58.5452 90.8027 57.6065 84.744C56.7532 78.6853 55.9852 70.4507 55.3025 60.04C53.1692 60.3813 49.5425 61.1493 44.4225 62.344C39.3025 63.4533 34.5665 64.5627 30.2145 65.672C14.8545 69.512 6.19317 71.432 4.2305 71.432C3.63317 71.432 2.77983 70.9627 1.6705 70.024C0.6465 69.0853 0.1345 68.1893 0.1345 67.336C0.1345 66.3973 0.689167 65.416 1.7985 64.392C3.24917 63.112 6.96117 59.2293 12.9345 52.744C18.1398 46.9413 22.9185 41.864 27.2705 37.512C31.7078 33.0747 38.5345 25.096 47.7505 13.576C50.8225 9.73599 52.7852 7.34666 53.6385 6.408C54.8332 5.04266 55.6865 3.89066 56.1985 2.952C56.7105 1.92799 57.0945 1.24533 57.3505 0.903999C57.6065 0.562665 58.0332 0.391998 58.6305 0.391998C59.6545 0.391998 60.7638 0.903997 61.9585 1.92799C63.1532 2.952 63.7505 4.01866 63.7505 5.128C63.7505 5.384 63.4945 5.93866 62.9825 6.792C62.3852 7.98667 62.0438 9.39467 61.9585 11.016C61.7878 13.832 61.7025 25.5227 61.7025 46.088C61.7025 49.5867 61.7452 52.104 61.8305 53.64L64.3905 53.128C69.5105 52.104 73.7345 51.3787 77.0625 50.952C77.7452 50.8667 78.2998 50.312 78.7265 49.288C79.2385 48.264 79.7505 47.752 80.2625 47.752C81.2012 47.752 82.1398 48.3067 83.0785 49.416C84.1025 50.44 84.6145 51.5067 84.6145 52.616C84.6145 54.0667 84.0172 55.0907 82.8225 55.688C81.6278 56.2 79.3665 56.6267 76.0385 56.968L66.0545 58.12L62.2145 58.632C62.8118 67.4213 63.9638 75.8267 65.6705 83.848C66.2678 87.176 66.5665 89.224 66.5665 89.992C66.5665 90.9307 66.0545 91.784 65.0305 92.552C64.0918 93.4053 62.9825 93.832 61.7025 93.832ZM31.4945 40.712C23.6438 49.16 16.6892 56.7973 10.6305 63.624L19.3345 61.704C24.0278 60.8507 27.2278 60.2107 28.9345 59.784C34.0545 58.5893 40.0278 57.352 46.8545 56.072L54.9185 54.408C54.6625 51.08 54.5345 48.4773 54.5345 46.6C54.5345 40.968 54.5772 34.696 54.6625 27.784C54.8332 20.872 54.9612 16.52 55.0465 14.728C53.5105 16.4347 50.4812 19.8053 45.9585 24.84C41.5212 29.7893 36.6998 35.08 31.4945 40.712ZM112.294 95.624C106.15 95.624 101.414 93.32 98.0855 88.712C94.7575 84.104 93.0935 78.1307 93.0935 70.792C93.0935 62.0027 94.1602 53.128 96.2935 44.168C98.5122 35.1227 101.456 26.9733 105.126 19.72C104.443 19.72 103.803 19.464 103.206 18.952C102.608 18.44 102.31 17.8 102.31 17.032C102.31 15.9227 102.95 14.8987 104.23 13.96C105.595 13.0213 107.174 12.3387 108.966 11.912C109.136 11.7413 109.435 11.4 109.862 10.888C110.288 10.2907 110.886 9.992 111.654 9.992C112.507 9.992 113.318 10.1627 114.086 10.504C114.854 10.76 115.323 11.0587 115.494 11.4C117.883 10.9733 120.315 10.76 122.79 10.76C128.592 10.76 133.798 12.3387 138.406 15.496C143.014 18.6533 146.64 23.048 149.286 28.68C151.931 34.2267 153.254 40.456 153.254 47.368C153.254 54.8773 151.291 62.3867 147.366 69.896C143.526 77.4053 138.406 83.5493 132.006 88.328C125.691 93.192 119.12 95.624 112.294 95.624ZM123.302 18.568C121.339 18.568 118.736 18.824 115.494 19.336L112.806 19.72C108.88 26.7173 105.808 34.952 103.59 44.424C101.456 53.896 100.39 62.6427 100.39 70.664C100.39 76.04 101.414 80.4773 103.462 83.976C105.595 87.3893 108.923 89.096 113.446 89.096C118.651 89.096 123.899 86.92 129.19 82.568C134.48 78.1307 138.832 72.6693 142.246 66.184C145.659 59.6987 147.366 53.512 147.366 47.624C147.366 42.4187 146.214 37.5973 143.91 33.16C141.691 28.6373 138.704 25.096 134.95 22.536C131.28 19.8907 127.398 18.568 123.302 18.568ZM223.327 93.832C221.536 93.832 220.17 90.8027 219.232 84.744C218.378 78.6853 217.61 70.4507 216.928 60.04C214.794 60.3813 211.168 61.1493 206.048 62.344C200.928 63.4533 196.192 64.5627 191.84 65.672C176.48 69.512 167.818 71.432 165.856 71.432C165.258 71.432 164.405 70.9627 163.296 70.024C162.272 69.0853 161.76 68.1893 161.76 67.336C161.76 66.3973 162.314 65.416 163.424 64.392C164.874 63.112 168.586 59.2293 174.56 52.744C179.765 46.9413 184.544 41.864 188.896 37.512C193.333 33.0747 200.16 25.096 209.376 13.576C212.448 9.73599 214.41 7.34666 215.264 6.408C216.458 5.04266 217.312 3.89066 217.824 2.952C218.336 1.92799 218.72 1.24533 218.976 0.903999C219.232 0.562665 219.658 0.391998 220.256 0.391998C221.28 0.391998 222.389 0.903997 223.584 1.92799C224.778 2.952 225.376 4.01866 225.376 5.128C225.376 5.384 225.12 5.93866 224.608 6.792C224.01 7.98667 223.669 9.39467 223.584 11.016C223.413 13.832 223.327 25.5227 223.327 46.088C223.327 49.5867 223.37 52.104 223.456 53.64L226.016 53.128C231.136 52.104 235.36 51.3787 238.688 50.952C239.37 50.8667 239.925 50.312 240.352 49.288C240.864 48.264 241.376 47.752 241.888 47.752C242.826 47.752 243.765 48.3067 244.704 49.416C245.728 50.44 246.24 51.5067 246.24 52.616C246.24 54.0667 245.642 55.0907 244.448 55.688C243.253 56.2 240.992 56.6267 237.664 56.968L227.68 58.12L223.84 58.632C224.437 67.4213 225.589 75.8267 227.296 83.848C227.893 87.176 228.192 89.224 228.192 89.992C228.192 90.9307 227.68 91.784 226.656 92.552C225.717 93.4053 224.608 93.832 223.327 93.832ZM193.12 40.712C185.269 49.16 178.314 56.7973 172.256 63.624L180.96 61.704C185.653 60.8507 188.853 60.2107 190.56 59.784C195.68 58.5893 201.653 57.352 208.48 56.072L216.544 54.408C216.288 51.08 216.16 48.4773 216.16 46.6C216.16 40.968 216.202 34.696 216.288 27.784C216.458 20.872 216.586 16.52 216.672 14.728C215.136 16.4347 212.106 19.8053 207.584 24.84C203.146 29.7893 198.325 35.08 193.12 40.712ZM340.621 54.28C340.621 55.816 339.469 59.1867 337.165 64.392C334.946 69.5973 331.533 74.4187 326.925 78.856C322.402 83.2933 316.813 85.512 310.157 85.512C304.695 85.512 300.13 83.8053 296.461 80.392C292.791 76.9787 290.957 71.7307 290.957 64.648C290.957 57.992 292.493 51.4213 295.565 44.936C298.637 38.3653 302.647 33.032 307.597 28.936C312.546 24.7547 317.666 22.664 322.957 22.664C326.114 22.664 328.759 23.3893 330.893 24.84C333.111 26.2053 334.221 28.2107 334.221 30.856C334.221 33.8427 332.514 36.744 329.101 39.56C325.773 42.376 321.421 44.8507 316.045 46.984C310.669 49.1173 305.122 50.6533 299.405 51.592C298.381 55.5173 297.869 59.3573 297.869 63.112C297.869 68.0613 299.021 71.9013 301.325 74.632C303.714 77.3627 307.085 78.728 311.437 78.728C318.007 78.728 323.341 76.3813 327.437 71.688C331.533 66.9947 334.946 61.704 337.677 55.816C337.847 55.4747 338.146 54.8347 338.573 53.896C338.999 52.872 339.383 52.36 339.725 52.36C340.322 52.36 340.621 53 340.621 54.28ZM321.421 27.912C318.178 27.912 315.063 28.9787 312.077 31.112C309.09 33.2453 306.573 35.8053 304.525 38.792C302.562 41.7787 301.282 44.424 300.685 46.728C304.61 46.3013 308.749 45.192 313.101 43.4C317.453 41.608 321.079 39.6453 323.981 37.512C326.967 35.3787 328.461 33.6293 328.461 32.264C328.461 30.8987 327.735 29.832 326.285 29.064C324.919 28.296 323.298 27.912 321.421 27.912ZM390.268 35.208C389.67 35.208 389.073 34.952 388.476 34.44C387.964 33.928 387.366 33.2027 386.684 32.264C386.086 31.4107 385.276 30.6853 384.252 30.088C383.313 29.4907 382.332 29.192 381.308 29.192C378.833 29.192 375.505 32.4773 371.324 39.048C367.142 45.5333 363.046 53.7253 359.036 63.624C359.121 65.5867 359.249 68.0613 359.42 71.048C359.676 74.0347 359.846 76.2533 359.932 77.704L360.316 82.824C360.316 84.0187 360.06 85.0427 359.548 85.896C359.036 86.8347 358.097 87.304 356.732 87.304C355.281 87.304 354.342 85.384 353.916 81.544C353.489 77.6187 353.233 71.944 353.148 64.52C353.062 62.6427 352.977 59.9547 352.892 56.456C352.892 52.9573 352.806 48.776 352.635 43.912C352.38 36.5733 352.252 31.3253 352.252 28.168C352.252 26.2053 353.446 25.224 355.836 25.224C357.286 25.224 358.14 25.864 358.396 27.144C358.737 28.3387 358.908 30.6853 358.908 34.184V54.536C361.468 47.9653 364.241 42.2907 367.228 37.512C370.214 32.7333 373.116 29.1067 375.932 26.632C378.833 24.072 381.393 22.792 383.612 22.792C385.489 22.792 387.281 23.2187 388.988 24.072C390.694 24.9253 392.06 26.0347 393.084 27.4C394.108 28.68 394.62 29.9173 394.62 31.112C394.62 31.88 394.065 32.776 392.956 33.8C391.932 34.7387 391.036 35.208 390.268 35.208ZM443.268 35.208C442.67 35.208 442.073 34.952 441.476 34.44C440.964 33.928 440.366 33.2027 439.684 32.264C439.086 31.4107 438.276 30.6853 437.252 30.088C436.313 29.4907 435.332 29.192 434.308 29.192C431.833 29.192 428.505 32.4773 424.324 39.048C420.142 45.5333 416.046 53.7253 412.036 63.624C412.121 65.5867 412.249 68.0613 412.42 71.048C412.676 74.0347 412.846 76.2533 412.932 77.704L413.316 82.824C413.316 84.0187 413.06 85.0427 412.548 85.896C412.036 86.8347 411.097 87.304 409.732 87.304C408.281 87.304 407.342 85.384 406.916 81.544C406.489 77.6187 406.233 71.944 406.148 64.52C406.062 62.6427 405.977 59.9547 405.892 56.456C405.892 52.9573 405.806 48.776 405.635 43.912C405.38 36.5733 405.252 31.3253 405.252 28.168C405.252 26.2053 406.446 25.224 408.836 25.224C410.286 25.224 411.14 25.864 411.396 27.144C411.737 28.3387 411.908 30.6853 411.908 34.184V54.536C414.468 47.9653 417.241 42.2907 420.228 37.512C423.214 32.7333 426.116 29.1067 428.932 26.632C431.833 24.072 434.393 22.792 436.612 22.792C438.489 22.792 440.281 23.2187 441.988 24.072C443.694 24.9253 445.06 26.0347 446.084 27.4C447.108 28.68 447.62 29.9173 447.62 31.112C447.62 31.88 447.065 32.776 445.956 33.8C444.932 34.7387 444.036 35.208 443.268 35.208ZM471.436 85.896C465.718 85.896 461.494 84.3173 458.764 81.16C456.033 78.0027 454.668 74.0773 454.668 69.384C454.668 65.288 455.393 60.2107 456.844 54.152C458.38 48.0933 460.513 42.6747 463.244 37.896C463.414 37.5547 464.097 36.3173 465.292 34.184C466.572 31.9653 467.98 30.3013 469.516 29.192C471.052 27.9973 472.673 27.4 474.38 27.4C475.148 27.4 475.83 27.6133 476.428 28.04C477.11 28.3813 477.452 28.8507 477.452 29.448C477.452 29.6187 477.196 30.0453 476.684 30.728C476.257 31.3253 475.916 31.7947 475.66 32.136C472.758 35.6347 470.412 39.0907 468.62 42.504C466.23 46.856 464.353 51.1653 462.988 55.432C461.708 59.6987 461.068 64.3493 461.068 69.384C461.068 76.1253 465.164 79.496 473.356 79.496C477.196 79.496 480.737 78.3867 483.979 76.168C487.308 73.9493 489.953 71.2613 491.916 68.104C493.878 64.8613 494.86 61.9173 494.86 59.272C494.86 56.2853 493.878 53.6827 491.916 51.464C489.953 49.2453 487.265 46.8987 483.852 44.424C481.633 42.8027 480.012 41.48 478.988 40.456C477.964 39.432 477.452 38.5787 477.452 37.896C477.452 36.872 478.177 36.0613 479.628 35.464C481.078 34.7813 482.785 34.44 484.748 34.44C485.857 34.44 486.582 34.5253 486.924 34.696C487.265 34.7813 487.436 34.9947 487.436 35.336C487.436 35.5067 487.265 35.8053 486.924 36.232C486.668 36.5733 486.54 36.872 486.54 37.128C486.54 37.384 487.393 38.2373 489.1 39.688C492.513 42.504 495.372 45.3627 497.676 48.264C499.98 51.1653 501.132 54.5787 501.132 58.504C501.132 61.832 499.894 65.672 497.42 70.024C494.945 74.376 491.446 78.1307 486.924 81.288C482.401 84.36 477.238 85.896 471.436 85.896ZM551.018 35.208C550.42 35.208 549.823 34.952 549.226 34.44C548.714 33.928 548.116 33.2027 547.434 32.264C546.836 31.4107 546.026 30.6853 545.002 30.088C544.063 29.4907 543.082 29.192 542.058 29.192C539.583 29.192 536.255 32.4773 532.074 39.048C527.892 45.5333 523.796 53.7253 519.786 63.624C519.871 65.5867 519.999 68.0613 520.17 71.048C520.426 74.0347 520.596 76.2533 520.682 77.704L521.066 82.824C521.066 84.0187 520.81 85.0427 520.298 85.896C519.786 86.8347 518.847 87.304 517.482 87.304C516.031 87.304 515.092 85.384 514.666 81.544C514.239 77.6187 513.983 71.944 513.898 64.52C513.812 62.6427 513.727 59.9547 513.642 56.456C513.642 52.9573 513.556 48.776 513.385 43.912C513.13 36.5733 513.002 31.3253 513.002 28.168C513.002 26.2053 514.196 25.224 516.586 25.224C518.036 25.224 518.89 25.864 519.146 27.144C519.487 28.3387 519.658 30.6853 519.658 34.184V54.536C522.218 47.9653 524.991 42.2907 527.978 37.512C530.964 32.7333 533.866 29.1067 536.682 26.632C539.583 24.072 542.143 22.792 544.362 22.792C546.239 22.792 548.031 23.2187 549.738 24.072C551.444 24.9253 552.81 26.0347 553.834 27.4C554.858 28.68 555.37 29.9173 555.37 31.112C555.37 31.88 554.815 32.776 553.706 33.8C552.682 34.7387 551.786 35.208 551.018 35.208Z" fill="#2A4E96"/>
</svg>
