<svg width="622" height="448" viewBox="0 0 622 448" fill="none" xmlns="http://www.w3.org/2000/svg">
<path d="M594.21 446.485C555.036 446.485 25.4444 445.349 25.4444 445.27C25.2329 444.768 -41.7756 362.701 42.5996 276.883C84.4171 234.358 4.21842 179.285 42.5996 132.005C108.366 50.9948 173.445 96.611 227.659 73.8425C237.228 69.8277 246.85 63.3564 256.472 53.4249C261.891 47.8516 267.812 42.9651 274.182 38.739C275.16 38.0786 276.138 37.4447 277.143 36.8372C280.949 34.4864 284.888 32.3469 288.958 30.4187C291.681 29.1244 294.456 27.9358 297.311 26.8529C301.805 25.1096 306.431 23.6304 311.136 22.3626C317.823 20.5664 324.723 19.2193 331.754 18.3213C334.82 17.9251 337.913 17.6081 341.032 17.3704C401.617 12.8273 469.762 38.422 504.945 75.8235C512.029 83.3514 544.225 122.338 518.849 175.904C502.83 209.74 569.971 242.044 593.84 280.66C654.478 378.84 594.765 445.19 594.21 446.485Z" fill="white"/>
<g opacity="0.8">
<path d="M457.154 218.166C455.541 222.603 453.559 226.829 451.233 230.765C445.682 240.247 438.307 248.198 429.716 254.352C409.759 268.668 383.299 273.211 358.478 264.178C328.952 253.454 309.973 226.539 307.938 197.088C307.673 193.205 307.7 189.296 308.043 185.36C308.598 178.757 310.052 172.1 312.405 165.576C314.334 160.294 316.766 155.354 319.648 150.785C319.674 150.732 319.7 150.679 319.753 150.626C327.736 138 339.102 128.28 352.161 122.179C355.861 120.435 359.694 119.009 363.659 117.873C365.536 117.345 367.439 116.87 369.369 116.473C382.85 113.7 397.229 114.519 411.107 119.537C412.957 120.198 414.755 120.937 416.499 121.73C418.984 122.839 421.363 124.081 423.663 125.428C433.364 131.08 441.479 138.661 447.691 147.483C451.576 152.977 454.695 158.946 457.022 165.259C458.238 168.561 459.242 171.968 460.009 175.402C460.484 177.542 460.854 179.734 461.145 181.926C461.832 187.209 461.991 192.571 461.542 197.986C461.013 204.721 459.559 211.509 457.154 218.166Z" fill="#D7E5FF"/>
<path d="M371.958 150.573C367.412 154.086 368.627 163.516 360.75 158.207C352.873 152.898 347.93 150.019 345.71 154.641C343.463 159.29 350.468 161.826 348.617 166.871C346.767 171.916 343.04 172.444 339.101 168.297C335.163 164.15 335.057 160.162 328.66 160.294C322.29 160.426 319.541 157.811 319.858 153.004C319.911 152.158 319.832 151.419 319.646 150.785C319.673 150.732 319.699 150.679 319.752 150.626C327.735 138.001 339.101 128.28 352.159 122.179C355.86 120.436 359.693 119.009 363.658 117.874C365.535 117.345 367.438 116.87 369.368 116.474C371.588 117.372 373.967 119.221 375.236 122.892C378.011 130.975 382.531 129.073 378.699 135.861C374.866 142.649 376.452 144.313 380.628 145.555C384.805 146.796 389.616 148.54 388.955 151.841C388.294 155.143 376.505 147.034 371.958 150.573Z" fill="#AEC3FF"/>
<path d="M457.152 218.166C455.539 222.603 453.557 226.829 451.231 230.765C445.68 240.247 438.305 248.198 429.714 254.352C427.573 254.273 425.617 253.56 423.978 252.107C416.26 245.213 426.489 237.897 431.855 234.357C437.248 230.791 427.256 229.629 422.207 222.682C417.158 215.736 428.974 206.359 421.388 205.857C413.801 205.355 404.576 204.853 403.043 196.744C401.51 188.635 409.466 190.299 408.065 183.458C406.664 176.617 413.273 175.349 420.33 177.304C427.388 179.259 428.26 174.055 437.01 176.406C445.759 178.757 441.636 189.533 451.284 192.201C460.932 194.895 459.716 196.903 459.716 196.903C460.403 197.141 461.011 197.51 461.513 198.039C461.011 204.721 459.557 211.51 457.152 218.166Z" fill="#AEC3FF"/>
<path d="M461.143 181.926C451.971 182.877 452.579 171.44 444.781 172.101C436.93 172.787 440.287 167.188 436.402 161.429C432.516 155.671 419.379 158.788 422.048 152.951C424.718 147.113 432.04 151.683 435.477 147.483C438.913 143.283 446.182 147.298 446.182 147.298C446.684 147.298 447.186 147.351 447.689 147.483C451.574 152.977 454.694 158.947 457.02 165.259C458.236 168.561 459.24 171.968 460.007 175.402C460.482 177.568 460.853 179.734 461.143 181.926Z" fill="#AEC3FF"/>
<path d="M402.939 137.314C402.939 137.314 409.177 132.903 403.309 128.809C397.441 124.715 396.727 127.039 391.89 124.662C387.026 122.285 383.616 125.481 385.863 131.133C388.11 136.786 388.189 146.083 393.211 142.967C398.207 139.823 398.762 136.284 402.939 137.314Z" fill="#AEC3FF"/>
</g>
<path d="M42.9434 445.481H69.7997C71.2271 444.266 68.7953 441.492 66.2577 441.307C65.1475 441.228 63.7465 441.466 62.1605 441.783C61.7904 436.87 59.6758 414.841 51.7193 415.713C42.7849 416.716 51.7193 425.433 54.2569 430.583C56.1337 434.413 58.1162 439.881 59.0149 442.47C58.3012 442.628 57.5346 442.787 56.7681 442.919C55.5786 439.274 51.1642 427.044 45.5604 427.757C38.9785 428.602 41.6218 433.489 46.3005 436.421C49.7368 438.56 53.9397 441.598 55.9222 443.077C54.2305 443.341 52.4595 443.553 50.662 443.5C46.0626 443.42 43.8157 444.768 42.9434 445.481Z" fill="#A8D29F"/>
<path d="M470.344 445.481H445.391C444.043 444.345 446.316 441.783 448.669 441.598C449.7 441.519 450.995 441.73 452.475 442.047C452.819 437.504 454.775 417.007 462.177 417.826C470.477 418.75 462.176 426.833 459.824 431.64C458.079 435.179 456.255 440.277 455.41 442.681C456.097 442.839 456.784 442.971 457.498 443.103C458.608 439.722 462.705 428.365 467.913 429.025C474.019 429.791 471.56 434.36 467.225 437.055C464.053 439.036 460.141 441.862 458.291 443.235C459.85 443.5 461.516 443.658 463.181 443.632C467.437 443.552 469.525 444.82 470.344 445.481Z" fill="#A8D29F"/>
<path d="M488.161 282.113C488.161 282.113 488.743 276.223 485.677 276.408C482.584 276.619 481.764 278.019 482.108 279.155C482.452 280.29 485.465 284.041 485.465 284.041L488.161 282.113Z" fill="#FFB27D"/>
<path d="M536.269 293.92C536.269 293.92 532.859 297.935 525.511 302.557C524.824 303.006 524.084 303.429 523.317 303.878C520.462 305.542 517.105 307.232 513.246 308.817C512.823 309.002 512.321 309.187 511.766 309.398C507.351 310.983 499.263 313.254 494.24 313.439C493.791 313.466 493.394 313.466 492.998 313.439C485.359 313.122 484.434 283.486 484.434 283.486C484.434 283.486 485.279 280.528 489.218 281.268C489.218 281.268 495.192 298.014 497.333 299.387C499.236 300.602 510.153 284.067 519.537 282.905C525.802 282.139 536.269 293.92 536.269 293.92Z" fill="#739AF0"/>
<path d="M515.732 438.507C515.732 438.507 516.287 445.032 514.912 445.718L497.229 445.692C497.229 445.692 497.229 443.658 500.057 443.209C502.885 442.76 507.881 441.096 508.727 437.398C509.599 433.7 515.732 438.507 515.732 438.507Z" fill="#1C3154"/>
<path d="M502.753 359.531C502.832 363.81 503.044 368.195 503.44 372.157C505.343 390.937 506.031 413.626 506.295 417.984C506.771 425.565 508.278 437.715 508.278 437.715C508.278 437.715 511.264 440.541 517.053 439.194C517.053 439.194 521.864 421.735 522.948 403.325C522.974 403.034 522.974 402.717 523.001 402.427C523.133 399.997 523.265 397.223 523.397 394.212C524.27 374.138 525.248 344.29 525.248 344.29L503.07 339.087C503.044 339.061 502.542 348.886 502.753 359.531Z" fill="#2A4E96"/>
<path d="M502.753 359.531C508.383 369.225 519.089 387.08 523.371 394.212C524.243 374.138 525.221 344.29 525.221 344.29L503.044 339.087C503.044 339.061 502.542 348.886 502.753 359.531Z" fill="#233862"/>
<path d="M511.74 309.425C507.326 311.009 499.237 313.281 494.215 313.466C494.981 313.334 500.585 312.224 502.647 309.715C504.867 307.021 508.621 299.757 511.582 302.715C512.982 304.115 512.56 306.889 511.74 309.425Z" fill="#6385DB"/>
<path d="M549.012 356.361C549.012 356.361 550.386 361.75 550.175 362.965C549.937 364.153 548.615 368.221 547.769 369.225C546.923 370.228 546.897 364.84 546.342 363.995C545.787 363.15 546.078 366.002 545.628 366.24C545.179 366.478 544.439 364.074 544.095 363.229C543.751 362.384 545.284 359.425 545.417 357.312C545.549 355.199 549.012 356.361 549.012 356.361Z" fill="#FFB27D"/>
<path d="M559.744 431.112C559.744 431.112 562.89 433.991 562.282 436.025C561.674 438.059 558.819 439.432 558.449 441.915C558.079 444.398 556.519 445.771 555.145 445.771C553.77 445.771 548.563 445.771 548.563 445.771C548.563 445.771 547.559 444.028 549.99 443.5C552.449 442.971 553.374 440.04 553.215 437.319C553.057 434.598 553.453 430.98 553.453 430.98L558.661 429.765L559.744 431.112Z" fill="#1C3154"/>
<path d="M506.533 344.739C506.533 344.739 527.283 389.114 538.332 408.581C549.382 428.048 552.818 433.489 552.818 433.489C552.818 433.489 559.136 431.006 559.717 429.289C559.717 429.289 555.488 391.703 548.086 382.537C543.91 377.36 538.993 361.829 538.755 356.388C538.518 350.947 533.68 337.978 533.68 337.978L506.533 344.739Z" fill="#2A4E96"/>
<path d="M502.672 342.415C502.672 342.415 509.439 349.679 520.911 351.871C525.96 352.848 536.19 353.773 538.727 350.181C539.335 349.335 539.335 348.094 539.203 346.139C538.859 341.068 537.591 331.295 543.327 311.643C543.855 309.821 544.225 308.051 544.437 306.387C545.679 296.324 545.547 288.743 536.824 284.675C523.739 278.6 518.374 283.592 518.374 283.592C518.374 283.592 511.422 286.841 508.25 296.297C501.879 315.288 502.672 342.415 502.672 342.415Z" fill="#739AF0"/>
<path d="M528.974 283.038C526.78 284.596 522.894 285.52 519.193 283.672C518.903 283.539 518.955 281.585 519.008 279.657C519.088 277.781 519.246 275.932 519.246 275.932L523.898 272.868L528.339 269.963C527.837 280 529.978 282.324 528.974 283.038Z" fill="#FFB27D"/>
<path d="M527.6 274.11C527.6 274.11 524.586 278.627 519.035 279.657C519.114 277.782 519.299 275.695 519.299 275.695L523.925 272.869L527.6 274.11Z" fill="#ED985F"/>
<path d="M515.097 274.77C515.097 274.77 526.358 278.97 528.869 272.049C531.38 265.129 534.525 260.982 527.441 258.024C520.357 255.039 518.005 257.205 516.577 259.318C515.176 261.405 512.242 273.502 515.097 274.77Z" fill="#FFB27D"/>
<path d="M535.9 258.79C536.032 258.684 536.297 258.631 536.852 258.711C536.852 258.711 536.482 258.367 535.9 258.235C535.926 257.469 535.794 256.043 534.552 255.462C534.552 255.462 535.186 255.964 535.107 256.783C533.918 254.934 530.904 253.19 521.864 252.134C509.916 250.734 512.322 259.028 513.67 260.216C515.018 261.405 519.326 259.714 522.128 260.507C524.93 261.299 524.639 265.499 525.512 266.239C526.358 266.978 526.173 265.922 527.6 265.578C529.027 265.235 528.71 267.427 528.076 268.748C527.415 270.069 528.842 272.287 528.842 272.287C528.842 272.287 528.842 272.287 531.036 270.702C533.23 269.118 536.561 261.22 536.085 259.292C535.979 259.133 535.926 258.948 535.9 258.79Z" fill="#2C3A64"/>
<path d="M539.205 346.166C538.861 341.094 537.593 331.321 543.329 311.67C543.857 309.847 544.227 308.077 544.439 306.413C540.157 305.013 532.385 308.13 532.385 308.13C532.385 308.13 530.561 334.121 539.205 346.166Z" fill="#6385DB"/>
<path d="M539.178 286.022C539.178 286.022 544.438 287.924 547.795 301.844C550.015 311.036 554.086 324.533 554.535 328.786C554.985 333.039 549.883 357.867 549.883 357.867C549.883 357.867 549.169 358.396 547.398 358.052C545.707 357.709 544.914 356.573 544.914 356.573C544.914 356.573 543.698 340.012 544.015 332.193C544.147 328.944 528.974 308.395 520.78 305.753C517.529 304.697 539.178 286.022 539.178 286.022Z" fill="#739AF0"/>
<path d="M465.668 268.035C465.668 268.035 480.867 267.612 498.392 270.834L500.216 266.212L502.225 261.167C502.225 261.167 484.621 253.586 474.047 243.047L465.668 268.035Z" fill="#AEC3FF"/>
<path d="M474.284 242.81L465.561 268.536C464.292 268.167 463.578 266.793 464.028 265.525L471.693 243.919C472.09 242.863 473.279 242.361 474.284 242.81Z" fill="#F99746"/>
<path d="M482.611 287.184C484.302 287.528 485.968 286.418 486.311 284.728L489.325 269.725C489.668 268.035 488.558 266.371 486.866 266.027C485.175 265.684 483.509 266.793 483.166 268.484L480.152 283.487C479.809 285.177 480.919 286.841 482.611 287.184Z" fill="#F99746"/>
<path d="M465.668 268.034C465.668 268.034 480.867 267.612 498.392 270.834L500.216 266.212C483.748 262.857 465.668 268.034 465.668 268.034Z" fill="#739AF0"/>
<path d="M493.527 269.884L498.285 270.729C498.206 270.729 502.7 271.601 504.154 267.639C504.286 267.374 504.365 267.11 504.444 266.793C505.581 261.854 502.858 260.929 502.858 260.929L496.752 258.552L494.823 265.42C494.823 265.42 494.823 265.42 494.823 265.446L493.527 269.884Z" fill="#F99746"/>
<path d="M493.527 269.883L498.285 270.729C498.206 270.729 502.7 271.6 504.154 267.638C501.457 265.684 494.796 265.419 494.796 265.419C494.796 265.419 494.796 265.419 494.796 265.446L493.527 269.883Z" fill="#ED7D2B"/>
<path d="M483.006 272.63C483.006 272.63 485.333 273.555 484.91 274.585C484.487 275.615 481.526 277.015 481.077 276.196C480.601 275.404 481.553 271.785 483.006 272.63Z" fill="#FFB27D"/>
<path d="M488.187 281.162C488.187 281.162 488.637 278.785 488.663 277.702C488.689 276.619 488.822 275.721 488.557 275.694C488.293 275.668 488.108 275.853 488.002 276.223C487.896 276.566 487.5 278.758 487.5 278.758L487.711 280.845L488.187 281.162Z" fill="#FFB27D"/>
<path d="M258.506 279.63L245.342 435.945C245.342 435.945 243.968 445.427 251.026 445.427C262.63 445.454 308.756 445.427 308.756 445.427C308.756 445.427 300.033 443.446 300.139 439.009C300.271 433.779 315.523 278.124 315.523 278.124L258.506 279.63Z" fill="#7599EA"/>
<path d="M313.092 442.654C310.818 442.654 266.146 442.733 254.859 442.601C249.942 442.548 249.07 438.216 249.044 435.443C249.017 434.096 249.202 433.119 249.202 433.119L249.546 429.051L250.418 418.697L251.185 409.558L252.163 397.804L253.009 387.872L262.366 276.803L319.356 275.324C319.356 275.324 312.933 340.46 308.386 387.872C307.884 393.155 307.408 398.226 306.959 402.954C306.827 404.46 306.668 405.939 306.536 407.365C306.113 411.856 305.717 415.976 305.399 419.621C305.214 421.549 305.056 423.319 304.924 424.957C304.342 431.349 303.999 435.443 303.999 436.209C303.999 436.658 304.025 437.081 304.104 437.477C305.003 442.443 312.246 442.654 313.092 442.654Z" fill="#90AFF4"/>
<path d="M120.102 194.552L152.139 323.186L156.527 340.803L171.462 400.709H448.747L393.739 194.552H120.102Z" fill="#AEC3FF"/>
<path d="M120.102 194.552L115.635 196.031L165.541 405.2L171.462 400.709L120.102 194.552Z" fill="#90AFF4"/>
<path d="M165.541 405.199H441.135L448.748 400.709H171.462L165.541 405.199Z" fill="#7599EA"/>
<path d="M262.346 445.494H322.006V442.667H262.346V445.494Z" fill="#AEC3FF"/>
<path d="M306.828 405.2L306.511 407.366L250.393 418.697L251.159 409.532L251.529 405.2H306.828Z" fill="#5888DD"/>
<path opacity="0.4" d="M313.091 442.654C310.818 442.654 266.145 442.733 254.858 442.601C249.942 442.548 249.069 438.217 249.043 435.443L304.897 424.931C304.315 431.323 303.971 435.417 303.971 436.183C303.971 436.632 303.998 437.054 304.077 437.451C305.002 442.443 312.245 442.654 313.091 442.654Z" fill="#5888DD"/>
<path d="M120.102 194.552H393.739L438.121 360.244H161.364L120.102 194.552Z" fill="#AEC3FF"/>
<path d="M425.223 353.059H169.004L159.858 316.609L156.316 302.53L154.862 296.772L145.452 259.318L144.976 257.363L140.007 237.553L137.76 228.705L135.883 221.15L131.416 203.427H383.934L388.824 221.15L390.912 228.705L393.37 237.553L409.468 295.927L410.816 300.866L411.451 303.164L422.579 343.445L425.223 353.059Z" fill="#739AF0"/>
<path d="M388.824 221.15H135.883L131.416 203.427H383.934L388.824 221.15Z" fill="#607CF4"/>
<path d="M141.882 211.43C141.565 210.215 142.332 209.211 143.548 209.211C144.764 209.211 146.006 210.215 146.323 211.43C146.64 212.645 145.874 213.649 144.658 213.649C143.415 213.649 142.173 212.672 141.882 211.43Z" fill="#E9F3FE"/>
<path d="M149.23 211.43C148.913 210.215 149.679 209.211 150.895 209.211C152.111 209.211 153.354 210.215 153.671 211.43C153.988 212.645 153.221 213.649 152.005 213.649C150.79 213.649 149.547 212.672 149.23 211.43Z" fill="#E9F3FE"/>
<path d="M157.162 211.43C156.844 210.215 157.611 209.211 158.827 209.211C160.043 209.211 161.285 210.215 161.602 211.43C161.92 212.645 161.153 213.649 159.937 213.649C158.721 213.649 157.479 212.672 157.162 211.43Z" fill="#E9F3FE"/>
<path d="M333.711 100.441C344.073 88.2905 360.039 63.8844 370.797 51.3908C373.018 48.8287 371.167 44.8402 367.784 44.8402H348.223L366.674 3.13328C367.467 1.36358 365.035 -0.0627535 363.872 1.49564L319.226 61.1902C317.931 62.9335 319.358 65.39 321.499 65.1258L343.65 62.4052L330.487 98.5653C329.773 100.546 332.337 102.052 333.711 100.441Z" fill="#F77D48"/>
<path d="M241.616 174.451C243.942 162.513 245.422 140.325 247.88 128.017C248.383 125.481 245.686 123.526 243.413 124.794L230.408 132.111L227.051 97.5089C226.919 96.0297 224.778 96.0033 224.566 97.4561L217.271 153.77C217.059 155.407 218.909 156.517 220.257 155.513L233.95 145.423L238.734 174.372C239.025 176.01 241.298 176.036 241.616 174.451Z" fill="#AEC3FF"/>
<path d="M436.432 356.599L213.81 375.353C196.893 376.779 184.681 359.557 191.606 344.079L285.92 133.141C293.057 117.134 315.05 115.285 324.777 129.865L453.085 322.05C462.495 336.155 453.323 355.173 436.432 356.599Z" fill="#E6EFFF"/>
<path d="M437.118 364.998L214.496 383.752C203.553 384.676 193.217 379.869 186.847 370.915C180.476 361.961 179.366 350.629 183.86 340.619L278.174 129.68C282.8 119.326 292.342 112.564 303.656 111.613C314.969 110.663 325.49 115.734 331.807 125.164L460.115 317.348C466.221 326.487 467.014 337.845 462.229 347.724C457.471 357.629 448.087 364.074 437.118 364.998ZM305.083 128.439C299.982 128.861 295.699 131.899 293.611 136.574L199.297 347.513C197.288 352.029 197.79 357.127 200.645 361.142C203.5 365.183 208.152 367.323 213.095 366.927L435.717 348.173C440.633 347.75 444.863 344.845 447.03 340.407C449.171 335.943 448.828 330.846 446.079 326.725L317.771 134.54C314.916 130.288 310.185 128.016 305.083 128.439Z" fill="#F77D48"/>
<path d="M299.85 324.321C299.612 321.442 299.903 318.775 300.722 316.239C301.542 313.73 302.81 311.485 304.529 309.556C306.247 307.628 308.388 306.043 310.925 304.828C313.463 303.613 316.397 302.847 319.675 302.583C322.979 302.319 325.992 302.557 328.741 303.323C331.491 304.089 333.896 305.304 335.905 306.915C337.914 308.526 339.553 310.534 340.769 312.858C341.985 315.209 342.725 317.824 342.963 320.676C343.2 323.555 342.91 326.223 342.09 328.68C341.271 331.163 340.002 333.355 338.284 335.31C336.566 337.238 334.398 338.823 331.808 340.064C329.217 341.279 326.283 342.045 322.979 342.309C319.675 342.6 316.688 342.335 313.965 341.57C311.243 340.804 308.89 339.588 306.855 337.977C304.846 336.366 303.207 334.385 301.991 332.087C300.828 329.763 300.114 327.201 299.85 324.321ZM334.292 284.067L302.229 286.761L288.457 177.647L329.614 174.187L334.292 284.067Z" fill="#F77D48"/>
<path d="M161.602 290.777C161.602 290.777 162.289 289.218 162.765 288.452C163.214 287.713 165.144 285.52 165.487 286.022C165.804 286.524 167.126 289.826 166.439 290.75C165.752 291.675 166.492 293.286 163.003 294.263L161.602 290.777Z" fill="#FFB27D"/>
<path d="M123.008 280.872C123.008 280.872 140.797 295.716 147.723 294.342C153.142 293.26 161.733 290.539 161.733 290.539C161.733 290.539 164.006 292.678 163.345 295.267C163.345 295.267 152.428 305.542 144.63 305.595C132.471 305.7 126.735 299.572 126.735 299.572L123.008 280.872Z" fill="#ED7D2B"/>
<path d="M91.8164 437.345C91.8164 437.345 92.3451 445.665 93.9311 445.798C94.1425 445.824 102.099 445.824 102.099 445.824L112.249 445.771C112.249 445.771 112.17 443.315 109.21 442.813C106.249 442.285 101.28 440.198 99.4821 436.289C97.6053 432.142 91.8164 437.345 91.8164 437.345Z" fill="#113C68"/>
<path d="M91.2365 437.926C91.2365 437.926 94.3292 438.956 96.7347 438.956C99.4309 438.956 101.863 438.217 101.863 438.217C101.863 438.217 102.444 432.591 105.643 420.229C107.308 413.732 109.713 405.385 113.123 395.031C122.56 366.372 125.415 349.626 125.679 348.041C125.706 347.962 125.706 347.909 125.706 347.909L125.679 347.883L96.7082 335.178C96.7082 335.178 100.277 374.666 95.7302 389.827C95.0958 391.94 94.5407 394.423 94.0649 397.091C91.1572 413.547 91.2365 437.926 91.2365 437.926Z" fill="#2A4E96"/>
<path d="M105.641 420.229C107.307 413.732 109.712 405.385 113.122 395.031C122.559 366.372 125.414 349.626 125.678 348.041C125.678 347.988 125.678 347.962 125.678 347.909L96.707 335.204C96.707 335.204 100.275 374.692 95.729 389.854C95.0681 391.94 105.641 420.229 105.641 420.229Z" fill="#233862"/>
<path d="M114.445 437.345C114.445 437.345 114.974 445.665 116.56 445.798C116.771 445.824 124.728 445.824 124.728 445.824L134.878 445.771C134.878 445.771 134.799 443.315 131.838 442.813C128.878 442.285 123.908 440.198 122.111 436.289C120.234 432.142 114.445 437.345 114.445 437.345Z" fill="#15447C"/>
<path d="M130.86 336.102C130.86 336.102 131.23 361.697 126.816 393.102C122.402 424.508 123.882 437.873 123.882 437.873C123.882 437.873 120.842 438.851 119.6 438.956C116.481 439.22 113.256 438.217 113.256 438.217C113.256 438.217 106.912 406.785 108.736 391.069C110.56 375.353 100.039 337.106 100.039 337.106L130.86 336.102Z" fill="#2A4E96"/>
<path d="M110.322 276.223L115.979 279.921L121.133 278.468C122.085 277.121 122.323 274.532 122.349 272.287C122.376 270.069 122.138 268.167 122.138 268.167L114.499 264.812L111.644 263.571C111.644 263.624 111.855 265.895 111.908 266.239C112.437 272.182 110.322 276.223 110.322 276.223Z" fill="#FFB27D"/>
<path d="M130.993 343.208C123.962 349.996 97.317 348.86 95.6782 341.385C94.0393 333.91 97.4756 277.676 109.503 274.163C111.988 273.423 125.336 277.728 125.336 277.728C125.336 277.728 127.425 283.196 128.799 290.169C129.063 291.516 129.83 305.885 130.438 319.33C130.702 325.616 130.94 331.691 131.046 336.155C131.152 340.328 131.152 343.075 130.993 343.208Z" fill="#F99746"/>
<path d="M112.489 266.344C114.049 268.959 119.467 271.257 122.349 272.288C122.375 270.069 122.137 268.167 122.137 268.167L114.498 264.812C112.806 264.812 111.775 265.182 112.489 266.344Z" fill="#FCA56B"/>
<path d="M125.018 267.718C125.018 267.718 112.727 271.548 110.453 263.861C108.18 256.175 105.061 251.5 112.832 248.726C120.577 245.953 122.983 248.436 124.357 250.813C125.732 253.19 128.137 266.529 125.018 267.718Z" fill="#FFB27D"/>
<path d="M123.854 250.073C123.854 250.073 123.061 259.028 121.211 258.631C119.361 258.235 117.325 257.416 117.59 260.111C117.854 262.805 115.792 267.427 113.122 267.427C107.386 267.401 101.174 252.715 102.734 249.941C107.281 241.912 130.41 240.274 123.854 250.073Z" fill="#163560"/>
<path d="M122.058 274.347C121.899 274.268 112.912 270.253 111.855 270.597C110.797 270.94 109.502 274.162 109.502 274.162L125.336 277.728C125.336 277.728 124.067 275.192 122.058 274.347Z" fill="#ED7D2B"/>
<path d="M178.045 317.877L127.636 365.315C126.658 366.24 125.389 366.53 124.861 365.976L123.169 364.18C122.64 363.625 123.01 362.384 123.988 361.459L174.397 314.02C175.375 313.096 176.644 312.805 177.172 313.36L178.864 315.156C179.393 315.737 179.023 316.952 178.045 317.877Z" fill="#1F4D84"/>
<path d="M149.761 344.502L127.636 365.316C126.658 366.24 125.389 366.531 124.861 365.976L123.169 364.18C122.64 363.625 123.01 362.384 123.988 361.459L146.113 340.646L149.761 344.502Z" fill="#739AF0"/>
<path d="M166.468 299.968C168.397 306.334 171.992 312.304 177.2 317.217C193.086 332.167 218.092 331.401 233.053 315.526C247.803 299.863 247.248 275.325 231.97 260.322C231.758 260.11 231.547 259.926 231.362 259.714C215.475 244.764 190.469 245.53 175.508 261.405C165.41 272.076 162.476 286.894 166.468 299.968ZM177.755 263.544C186.451 254.3 198.849 250.628 210.506 252.635C217.299 253.798 223.828 256.914 229.194 261.986C243.838 275.747 244.525 298.753 230.754 313.387C225.678 318.775 219.361 322.261 212.673 323.846C201.175 326.567 188.566 323.635 179.314 314.945C164.67 301.184 163.983 278.177 177.755 263.544Z" fill="#1F4D84"/>
<g opacity="0.5">
<path d="M230.753 313.386C225.678 318.775 219.36 322.261 212.673 323.846C201.174 326.567 188.565 323.635 179.314 314.945C164.67 301.183 163.982 278.177 177.754 263.544C186.451 254.299 198.848 250.628 210.505 252.635C217.298 253.798 223.827 256.914 229.193 261.986C243.837 275.721 244.551 298.753 230.753 313.386Z" fill="#B3CFF9"/>
</g>
<path d="M131.044 336.155C103.262 316.371 105.562 289.984 105.562 289.984C115.712 295.716 125.784 308.368 130.409 319.33C130.674 325.616 130.912 331.691 131.044 336.155Z" fill="#ED7D2B"/>
<path d="M158.458 327.148C160.414 326.699 161.735 325.22 162 324.956C162 324.956 162.845 325.009 161.867 326.805C161.788 326.963 161.603 327.333 161.471 327.597C161.418 327.703 161.497 327.835 161.603 327.835C162.74 327.914 163.876 327.465 166.044 327.941C166.335 327.994 166.44 328.733 166.414 329.024C166.388 329.552 166.44 330.133 165.832 330.926C165.489 331.401 164.511 331.876 162.317 332.774C161.497 333.118 159.118 332.854 156.898 332.088L155.127 331.269L155.682 327.967L156.131 328.073C156.845 328.205 157.717 327.333 158.458 327.148Z" fill="#FFB27D"/>
<path d="M114.181 277.729C114.181 277.729 89.2275 282.483 121.529 318.59C126.684 324.375 154.597 331.876 154.597 331.876C154.597 331.876 157.425 329.473 155.998 327.518C155.998 327.518 136.781 313.572 132.552 311.353C130.649 310.349 125.177 289.086 122.058 283.962C118.991 278.891 114.181 277.729 114.181 277.729Z" fill="#F99746"/>
<path d="M162.289 291.199C162.289 291.199 163.108 289.641 163.267 288.822C163.426 288.003 164.457 285.599 164.88 285.177C165.038 285.018 165.62 285.229 165.673 285.943C165.699 286.26 165.54 286.841 165.276 287.527C164.827 288.637 164.906 290.169 164.747 290.671C164.351 291.939 162.289 291.199 162.289 291.199Z" fill="#FFB27D"/>
<path d="M172.231 229.313C171.808 229.788 171.755 230.343 171.967 230.924C172.363 232.007 173.632 233.196 175.139 234.384C175.324 234.543 175.509 234.675 175.641 234.807C175.667 234.833 175.72 234.886 175.746 234.912C175.773 234.939 175.799 234.965 175.826 234.992C177.227 236.26 176.698 236.577 179.183 239.165C182.038 242.123 183.994 242.176 184.549 241.912C185.025 241.674 184.073 240.116 182.989 238.346C182.936 238.267 182.883 238.188 182.831 238.082C182.698 237.844 182.54 237.607 182.408 237.369C181.165 235.256 181.483 234.252 181.773 231.082C182.011 228.52 185.765 216.74 185.765 216.74L180.319 215.789C180.319 215.789 178.681 225.166 176.857 226.619C175.879 227.385 174.795 227.385 173.87 227.966C173.817 228.019 173.738 228.045 173.685 228.098C173.182 228.468 172.654 228.837 172.231 229.313Z" fill="#FFB27D"/>
<path d="M172.231 229.312C171.808 229.788 171.755 230.342 171.967 230.923C172.442 232.006 173.685 233.195 175.139 234.384C175.324 234.542 175.482 234.674 175.641 234.806C175.667 234.833 175.72 234.885 175.746 234.912C175.773 234.938 175.799 234.965 175.826 234.991C177.227 236.259 176.698 236.576 179.183 239.164C182.038 242.123 183.994 242.176 184.549 241.911C185.025 241.674 184.073 240.115 182.989 238.346C182.434 238.134 179.87 237.104 177.914 234.595C176.275 232.482 175.139 229.814 174.028 228.15C173.896 228.124 173.843 228.124 173.711 228.097C173.182 228.467 172.654 228.837 172.231 229.312Z" fill="#233862"/>
<path d="M216.214 225.931C216.558 227.622 218.963 227.331 221.633 226.671C224.303 226.01 223.668 226.803 227.501 226.38C231.307 225.958 232.47 224.531 232.603 223.977C232.708 223.475 230.832 223.29 228.796 223.052C228.532 223.026 228.294 222.999 228.03 222.973C225.756 222.682 224.065 221.203 222.003 220.015C220.047 218.879 217.113 214.204 217.113 214.204L211.879 214.626C211.879 214.626 214.628 218.8 215.685 220.622C216.32 221.679 216.267 223.105 216.188 224.188C216.135 224.743 216.108 225.35 216.214 225.931Z" fill="#FFB27D"/>
<path d="M221.633 226.671C224.303 226.011 223.668 226.803 227.501 226.38C231.308 225.958 232.471 224.531 232.603 223.977C232.709 223.475 230.832 223.29 228.797 223.052L228.77 223.079C228.77 223.079 226.47 224.69 223.298 224.769C220.708 224.822 217.959 224.082 216.188 224.109C216.135 224.69 216.109 225.297 216.241 225.905C216.558 227.622 218.963 227.331 221.633 226.671Z" fill="#233862"/>
<path d="M196.177 192.465L191.287 205.619L184.89 222.788C184.89 222.788 183.145 222.947 181.506 222.471C179.973 222.022 178.229 220.886 178.229 220.886C178.229 220.886 180 202.45 183.33 191.858C184.176 189.137 185.128 186.945 186.185 185.704C191.287 179.655 196.177 192.465 196.177 192.465Z" fill="#233862"/>
<path d="M191.208 171.573C188.432 170.674 181.163 171.546 173.259 172.972C171.092 173.369 168.898 172.365 167.735 170.49L147.883 168.931C147.883 168.931 141.328 183.432 144.923 192.677C145.452 194.024 146.615 194.896 148.386 194.922C148.386 194.922 160.386 194.948 164.219 194.948C174.079 194.948 185.102 188.187 186.529 187.896C188.855 187.421 189.78 192.096 192.133 196.982C194.459 201.869 214.046 218.668 214.046 218.668C214.046 218.668 217.059 218.694 218.302 218.245C219.65 217.743 220.126 217.083 220.126 217.083C220.126 217.083 198.424 173.897 191.208 171.573Z" fill="#2A4E96"/>
<path d="M165.646 112.274C164.166 111.402 162.739 111.27 161.866 111.297C161.259 111.323 160.651 111.27 160.043 111.191C152.483 110.082 147.91 121.07 147.645 124.398C147.143 130.499 143.918 131.424 139.372 135.254C130.252 142.914 132.922 151.815 137.918 155.117C140.905 157.098 146.165 155.117 146.165 155.117C146.244 155.17 160.571 147.114 167.655 143.231C178.229 141.672 169.902 114.81 165.646 112.274Z" fill="#233862"/>
<path d="M161.71 139.876C161.736 139.902 158.221 141.091 155.895 140.061C153.701 139.084 152.009 135.465 152.062 135.465C153.066 135.412 154.176 134.54 155.022 128.782L155.445 128.941L162.635 131.529C162.635 131.529 162.106 133.827 161.789 136.02C161.472 137.842 161.313 139.612 161.71 139.876Z" fill="#FFB27D"/>
<path d="M162.608 131.503C162.608 131.503 162.317 132.745 161.894 135.069C157.771 134.329 156 131.16 155.418 128.915L162.608 131.503Z" fill="#ED975D"/>
<path d="M163.69 133.801C163.69 133.801 153.857 132.481 154.782 126.379C155.707 120.278 155.046 115.999 161.364 116.58C167.682 117.161 168.554 119.67 168.739 121.783C168.924 123.896 166.281 133.986 163.69 133.801Z" fill="#FFB27D"/>
<path d="M168.37 118.429C168.37 118.429 162.079 123.843 157.797 124.292C153.515 124.715 151.902 123.342 151.902 123.342C151.902 123.342 154.414 121.255 155.947 117.874C156.396 116.87 157.348 116.183 158.431 116.104C161.471 115.84 167.287 115.708 168.37 118.429Z" fill="#233862"/>
<path d="M164.432 117.953C164.432 117.953 166.546 119.987 167.207 121.492C167.842 122.945 168.027 126.432 167.524 127.805C167.524 127.805 170.802 121.44 168.952 118.323C166.996 115.048 164.432 117.953 164.432 117.953Z" fill="#233862"/>
<path d="M169.982 154.351C169.664 174.24 169.902 170.093 167.708 171.969C167.18 172.418 165.699 172.682 163.77 172.814C157.664 173.21 146.932 172.206 146.535 171.071C145.134 167.161 146.112 165.946 144.949 159.977C144.817 159.343 144.685 158.656 144.5 157.917C143.522 153.823 142.57 152.423 146.033 145.846C149.178 139.876 152.456 135.043 152.747 135.201C161.047 140.14 161.734 135.993 161.734 135.993C161.734 135.993 170.14 144.657 169.982 154.351Z" fill="#F99746"/>
<path d="M191.287 205.646L184.89 222.815C184.89 222.815 183.145 222.973 181.506 222.498C179.973 222.049 178.229 220.913 178.229 220.913C178.229 220.913 180 202.477 183.33 191.885L191.287 205.646Z" fill="#2A4E96"/>
<path d="M161.762 135.993C161.762 135.993 170.326 137.446 171.304 141.117C172.309 144.789 175.613 167.135 175.613 167.135C175.613 167.135 173.207 169.486 171.198 167.478C169.189 165.471 164.881 146.585 164.881 146.585L161.762 135.993Z" fill="#F99746"/>
<path d="M163.797 172.814C157.691 173.21 146.959 172.206 146.563 171.071C145.162 167.161 146.14 165.946 144.977 159.977L147.911 151.683C147.911 151.683 147.408 160.901 150.131 163.331C152.854 165.762 161.286 168.007 162.608 170.041C163.242 171.071 163.665 172.022 163.797 172.814Z" fill="#ED7D2B"/>
<path d="M156.791 168.931C156.791 168.931 162.818 167.584 163.796 168.139C164.774 168.667 167.153 170.622 167.444 171.282C167.734 171.969 165.276 170.78 164.483 170.542C163.954 170.41 162.606 170.886 161.919 171.097C159.064 172.048 157.346 171.546 157.346 171.546L156.791 168.931Z" fill="#FFB27D"/>
<path d="M152.774 135.201C152.774 135.201 144.686 135.703 141.884 139.586C137.945 145.08 130.121 168.482 134.588 171.599C139.637 175.112 157.532 172.523 157.532 172.523C157.532 172.523 158.14 169.75 157.294 168.403C156.475 167.056 142.994 164.864 142.359 164.256C141.725 163.622 150.131 152.132 150.131 150.283C150.184 148.408 152.774 135.201 152.774 135.201Z" fill="#F99746"/>
<path d="M164.088 169.803C164.088 169.803 165.357 171.44 165.753 171.625C166.176 171.81 166.44 171.784 166.44 171.784L165.595 170.252L164.088 169.803Z" fill="#FFB27D"/>
<path d="M163.797 168.139L167.471 169.908C167.471 169.908 167.313 170.173 166.863 170.146C166.414 170.12 165.277 169.697 165.277 169.697L163.797 168.139Z" fill="#FFB27D"/>
<path d="M195.093 172.338L156.791 172.312V173.157L194.776 173.184L195.093 172.338Z" fill="#233862"/>
<path d="M165.754 173.157L194.778 173.184L203.501 151.498L174.53 151.472L165.754 173.157Z" fill="#233862"/>
<path d="M187.456 162.328C187.667 161.562 187.244 160.954 186.478 160.954C185.711 160.954 184.918 161.562 184.707 162.328C184.495 163.094 184.918 163.701 185.685 163.701C186.425 163.701 187.218 163.094 187.456 162.328Z" fill="white"/>
<path d="M383.801 254.934C379.889 253.639 377.193 255.277 377.193 255.277C365.932 255.726 365.509 267.269 366.831 271.548C368.681 277.57 362.126 282.324 369.395 284.754C377.854 287.581 384.938 284.226 384.435 285.679C411.16 287.818 392.683 257.892 383.801 254.934Z" fill="#163560"/>
<path d="M372.117 311.01C372.117 311.01 371.059 313.123 369.103 315.553C366.777 318.485 354.486 311.538 355.543 311.01C356.6 310.481 362.759 292.732 364.239 290.513C365.72 288.294 370.716 287.132 370.716 287.132L372.117 311.01Z" fill="#F99746"/>
<path d="M413.538 430.715C413.538 430.715 416.922 433.806 416.261 435.998C415.6 438.19 412.534 439.643 412.137 442.337C411.714 445.032 410.075 446.484 408.595 446.484C407.115 446.484 401.511 446.484 401.511 446.484C401.511 446.484 400.427 444.609 403.071 444.028C405.714 443.447 406.718 440.304 406.533 437.372C406.348 434.44 406.771 430.557 406.771 430.557L412.375 429.263L413.538 430.715Z" fill="#1F447F"/>
<path d="M384.859 432.01C384.859 432.01 386.075 445.084 384.595 445.824L365.563 445.798C365.563 445.798 365.562 443.605 368.629 443.103C371.695 442.628 377.061 440.832 377.96 436.843C378.858 432.855 384.859 432.01 384.859 432.01Z" fill="#1C3154"/>
<path d="M399.502 302.187C399.502 302.187 399.793 306.175 399.502 310.983C399.317 314.152 396.092 318.405 395.643 319.461C394.506 322.103 393.211 322.525 393.211 322.525L383.219 324.982L379.703 325.854L368.628 322.552C368.628 322.552 363.579 308.473 365.614 300.549C367.65 292.625 370.742 287.131 370.742 287.131C370.742 287.131 378.276 285.441 391.545 286.392L399.502 302.187Z" fill="#F99746"/>
<path d="M400.454 311.089C400.269 314.258 396.092 318.405 395.643 319.462C394.506 322.103 393.211 322.526 393.211 322.526L383.219 324.982L381.422 319.805C381.422 319.805 396.013 315.975 393.66 302.478L400.454 311.089Z" fill="#ED7D2B"/>
<path d="M369.317 324.666C369.317 324.666 363.818 341.729 363.475 347.54C363.131 353.351 373.969 430.056 374.392 432.75C374.815 435.285 377.934 436.87 377.934 436.87C377.934 436.87 379.388 437.715 381.423 437.134C384.278 436.342 385.177 435.365 385.177 435.365C385.177 435.365 389.459 380.662 386.815 361.116C384.172 341.57 384.146 324.666 384.146 324.666H369.317Z" fill="#233862"/>
<path d="M392.578 324.137C392.578 324.137 400.957 335.363 401.724 342.944C402.517 350.524 402.94 377.176 404.605 384.571C406.27 391.967 412.377 406.204 412.377 429.263C412.377 429.263 411.742 430.584 409.786 431.297C409.152 431.535 408.332 431.746 407.513 431.931C405.9 432.301 404.235 431.508 403.495 430.029C399.371 421.735 386.208 394.925 385.547 389.379C385.071 385.443 380.921 359.399 371.854 344.106C369.687 340.434 373.176 325.854 373.176 325.854L392.578 324.137Z" fill="#2A4E96"/>
<path d="M368.444 322.024C368.444 322.024 370.638 323.767 375.026 323.846C380.26 323.952 393.212 322.526 393.212 322.526C393.212 322.526 393.794 324.137 393.767 325.827C393.767 325.827 377.96 329.816 368.788 326.409C368.788 326.409 367.598 324.19 368.444 322.024Z" fill="#233862"/>
<path d="M373.783 328.363C372.462 328.363 371.404 327.148 371.404 325.669C371.404 324.19 372.462 322.975 373.783 322.975C375.105 322.975 376.162 324.19 376.162 325.669C376.162 327.148 375.079 328.363 373.783 328.363ZM373.783 323.741C372.911 323.741 372.197 324.586 372.197 325.642C372.197 326.699 372.911 327.544 373.783 327.544C374.656 327.544 375.369 326.699 375.369 325.642C375.369 324.586 374.656 323.741 373.783 323.741Z" fill="white"/>
<path d="M385.202 333.25L361.438 333.488L349.729 306.018L373.492 305.78L385.202 333.25Z" fill="#B5453C"/>
<path d="M382.083 320.835L380.338 318.696C380.338 318.696 379.149 317.639 378.303 317.454C377.457 317.269 375.633 316.239 375.474 316.53C375.289 316.82 376.875 318.907 376.875 318.907H376.955C375.157 320.254 370.637 319.066 370.082 319.62C369.395 320.281 371.007 321.733 371.88 322.526C372.752 323.318 375.21 324.692 377.14 324.084C378.541 323.635 380.761 323.212 380.761 323.212L382.083 320.835Z" fill="#FFB27D"/>
<path d="M351.525 310.851C351.525 310.851 353.032 309.16 353.957 309.979C354.909 310.798 353.719 314.787 352.794 314.39C351.869 313.994 350.997 311.353 351.525 310.851Z" fill="#FFB27D"/>
<path d="M391.546 286.366C391.546 286.366 398.339 287.105 403.229 295.98C407.089 302.98 413.67 315.87 411.186 319.488C410.102 321.1 399.634 326.778 379.492 323.53C379.492 323.53 379.809 320.994 381.448 319.805C381.448 319.805 398.418 314.364 398.392 313.281C398.339 311.221 396.092 309.451 386.629 299.995C384.012 297.407 391.546 286.366 391.546 286.366Z" fill="#F99746"/>
<path d="M386.286 286.709C386.524 286.392 386.207 285.388 385.837 283.54C385.493 281.849 384.912 279.261 384.938 276.329L384.436 276.408L376.004 277.834C376.004 277.834 376.189 280.079 376.189 282.219C376.189 282.245 376.189 282.245 376.189 282.272C376.189 284.121 375.686 286.894 376.321 287.264C379.546 289.113 385.387 287.924 386.286 286.709Z" fill="#FFB27D"/>
<path d="M376.029 277.834C376.029 277.834 376.188 281.004 376.214 283.144C380.946 283.038 383.457 278.442 384.462 276.435L376.029 277.834Z" fill="#E8945B"/>
<path d="M375.502 281.611C375.502 281.611 386.551 280.026 385.467 273.185C384.383 266.344 385.071 261.484 377.96 262.197C370.85 262.911 369.898 265.737 369.713 268.114C369.528 270.518 372.621 281.849 375.502 281.611Z" fill="#FFB27D"/>
<path d="M372.938 262.831C372.938 262.831 377.246 270.412 382.057 270.861C386.868 271.31 388.692 269.752 388.692 269.752C388.692 269.752 384.7 267.507 383.167 262.699C383.167 262.673 374.603 258.632 372.938 262.831Z" fill="#163560"/>
<path d="M373.784 263.36C373.784 263.36 371.669 264.548 371.008 266.318C370.374 268.061 369.924 270.28 370.532 272.868C370.532 272.868 367.387 267.771 369.449 264.258C371.643 260.533 373.784 263.36 373.784 263.36Z" fill="#163560"/>
<path d="M617.365 447.461H4.53414C4.11121 447.461 3.76758 447.118 3.76758 446.695V446.246C3.76758 445.824 4.11121 445.48 4.53414 445.48H617.338C617.761 445.48 618.105 445.824 618.105 446.246V446.695C618.131 447.118 617.787 447.461 617.365 447.461Z" fill="#233862"/>
</svg>
